<svg width="13" height="11" viewBox="0 0 13 11" fill="none" xmlns="http://www.w3.org/2000/svg">
<path d="M0.154753 4.90368L4.90436 0.154068C5.00339 0.0550439 5.13769 -0.000587687 5.27773 -0.000587687C5.41778 -0.000587687 5.55208 0.0550439 5.65111 0.154068C5.75013 0.253093 5.80576 0.387399 5.80576 0.527441C5.80576 0.667482 5.75013 0.801788 5.65111 0.900813L1.80194 4.74932H12.1383C12.2782 4.74932 12.4125 4.80492 12.5114 4.90389C12.6104 5.00285 12.666 5.13709 12.666 5.27705C12.666 5.41701 12.6104 5.55125 12.5114 5.65021C12.4125 5.74918 12.2782 5.80478 12.1383 5.80478H1.80194L5.65111 9.65329C5.75013 9.75231 5.80576 9.88662 5.80576 10.0267C5.80576 10.1667 5.75013 10.301 5.65111 10.4C5.55208 10.4991 5.41778 10.5547 5.27773 10.5547C5.13769 10.5547 5.00339 10.4991 4.90436 10.4L0.154753 5.65042C0.105686 5.60141 0.0667607 5.54321 0.0402028 5.47914C0.0136449 5.41508 -2.39005e-05 5.3464 -2.39005e-05 5.27705C-2.39005e-05 5.2077 0.0136449 5.13903 0.0402028 5.07496C0.0667607 5.01089 0.105686 4.95269 0.154753 4.90368Z" fill="white"/>
</svg>
