<svg width="17" height="17" viewBox="0 0 17 17" fill="none" xmlns="http://www.w3.org/2000/svg">
<path d="M8.81445 0.351562C12.0311 0.351563 13.6394 0.351659 14.7979 1.11816C15.3151 1.46045 15.7583 1.90361 16.1006 2.4209C16.867 3.57933 16.8672 5.18778 16.8672 8.4043C16.8672 11.6209 16.8671 13.2293 16.1006 14.3877C15.7583 14.905 15.3152 15.3481 14.7979 15.6904C13.6394 16.4569 12.031 16.457 8.81445 16.457C5.59793 16.457 3.98949 16.4568 2.83105 15.6904C2.31376 15.3482 1.8706 14.905 1.52832 14.3877C0.761815 13.2293 0.761719 11.6209 0.761719 8.4043C0.761719 5.18769 0.761877 3.57934 1.52832 2.4209C1.87061 1.90359 2.31375 1.46045 2.83105 1.11816C3.9895 0.35172 5.59785 0.351562 8.81445 0.351562ZM8.81445 4.23438C6.51213 4.23438 4.64571 6.10105 4.64551 8.40332C4.64551 10.7058 6.51201 12.5723 8.81445 12.5723C11.1168 12.5721 12.9834 10.7057 12.9834 8.40332C12.9832 6.10112 11.1167 4.23449 8.81445 4.23438ZM8.81445 5.64551C10.3377 5.64563 11.5721 6.8801 11.5723 8.40332C11.5723 9.92671 10.3378 11.162 8.81445 11.1621C7.29099 11.1621 6.05566 9.92678 6.05566 8.40332C6.05586 6.88003 7.29111 5.64551 8.81445 5.64551ZM13.1475 3.04688C12.6066 3.04706 12.168 3.48548 12.168 4.02637C12.1682 4.56709 12.6067 5.00567 13.1475 5.00586C13.6883 5.00586 14.1268 4.5672 14.127 4.02637C14.127 3.48536 13.6885 3.04688 13.1475 3.04688Z" fill="#E6E8F1"/>
</svg>
