<svg width="22" height="22" viewBox="0 0 22 22" fill="none" xmlns="http://www.w3.org/2000/svg">
<path fill-rule="evenodd" clip-rule="evenodd" d="M0 5.89017C0 2.64233 2.64233 0 5.89017 0H15.4432C18.6911 0 21.3333 2.64233 21.3333 5.89017V15.4433C21.3333 18.6911 18.6911 21.3333 15.4432 21.3333H5.89017C2.64233 21.3333 0 18.6911 0 15.4433V5.89017ZM6.43109 10.6667C6.43109 13.0022 8.33117 14.9022 10.6667 14.9022C13.0022 14.9022 14.9022 13.0022 14.9022 10.6667C14.9022 8.33117 13.0022 6.43109 10.6667 6.43109C8.33117 6.43109 6.43109 8.33117 6.43109 10.6667ZM5.05825 10.6667C5.05825 7.57412 7.57412 5.05825 10.6667 5.05825C13.7592 5.05825 16.2751 7.57412 16.2751 10.6667C16.2751 13.7592 13.7592 16.2751 10.6667 16.2751C7.57412 16.2751 5.05825 13.7592 5.05825 10.6667ZM17.4985 2.26233C18.3115 2.26233 18.9705 2.92139 18.9705 3.73439C18.9705 4.54741 18.3115 5.20648 17.4985 5.20648C16.6855 5.20648 16.0264 4.54741 16.0264 3.73439C16.0264 2.92139 16.6855 2.26233 17.4985 2.26233Z" fill="#1F4DA8"/>
</svg>
