<svg width="22" height="22" viewBox="0 0 22 22" fill="none" xmlns="http://www.w3.org/2000/svg">
<path d="M18.4242 0H2.90909C2.13755 0 1.39761 0.306493 0.852053 0.852053C0.306493 1.39761 0 2.13755 0 2.90909L0 18.4242C0 19.1958 0.306493 19.9357 0.852053 20.4813C1.39761 21.0268 2.13755 21.3333 2.90909 21.3333H18.4242C19.1958 21.3333 19.9357 21.0268 20.4813 20.4813C21.0268 19.9357 21.3333 19.1958 21.3333 18.4242V2.90909C21.3333 2.13755 21.0268 1.39761 20.4813 0.852053C19.9357 0.306493 19.1958 0 18.4242 0ZM7.27273 16.8824C7.27289 16.9416 7.26137 17.0002 7.23884 17.0549C7.21632 17.1096 7.18322 17.1593 7.14144 17.2012C7.09967 17.2431 7.05004 17.2763 6.9954 17.299C6.94076 17.3217 6.88219 17.3333 6.82303 17.3333H4.90667C4.84741 17.3335 4.7887 17.3219 4.73392 17.2993C4.67914 17.2767 4.62937 17.2435 4.58747 17.2016C4.54557 17.1597 4.51236 17.1099 4.48976 17.0552C4.46715 17.0004 4.4556 16.9417 4.45576 16.8824V8.84848C4.45576 8.7289 4.50326 8.61421 4.58783 8.52964C4.67239 8.44508 4.78708 8.39758 4.90667 8.39758H6.82303C6.94241 8.3979 7.05679 8.44555 7.14109 8.53007C7.22539 8.6146 7.27273 8.72911 7.27273 8.84848V16.8824ZM5.86424 7.63636C5.50464 7.63636 5.15311 7.52973 4.85412 7.32995C4.55512 7.13016 4.32208 6.8462 4.18446 6.51397C4.04685 6.18174 4.01084 5.81617 4.081 5.46347C4.15115 5.11078 4.32432 4.78681 4.57859 4.53253C4.83287 4.27826 5.15684 4.10509 5.50953 4.03494C5.86223 3.96478 6.2278 4.00079 6.56003 4.1384C6.89226 4.27601 7.17622 4.50906 7.37601 4.80805C7.57579 5.10705 7.68242 5.45858 7.68242 5.81818C7.68242 6.30039 7.49087 6.76286 7.14989 7.10383C6.80892 7.44481 6.34645 7.63636 5.86424 7.63636ZM17.2897 16.9139C17.2899 16.9684 17.2792 17.0224 17.2585 17.0728C17.2377 17.1231 17.2072 17.1689 17.1686 17.2074C17.1301 17.246 17.0843 17.2765 17.034 17.2973C16.9836 17.318 16.9296 17.3286 16.8752 17.3285H14.8145C14.7601 17.3286 14.7061 17.318 14.6557 17.2973C14.6053 17.2765 14.5596 17.246 14.5211 17.2074C14.4825 17.1689 14.452 17.1231 14.4312 17.0728C14.4105 17.0224 14.3998 16.9684 14.4 16.9139V13.1503C14.4 12.5879 14.5648 10.6873 12.9297 10.6873C11.663 10.6873 11.4048 11.9879 11.3539 12.5721V16.9188C11.354 17.0277 11.3111 17.1322 11.2347 17.2098C11.1582 17.2874 11.0543 17.3317 10.9455 17.3333H8.95515C8.90077 17.3333 8.84692 17.3226 8.7967 17.3018C8.74647 17.2809 8.70085 17.2504 8.66245 17.2118C8.62405 17.1733 8.59363 17.1276 8.57293 17.0773C8.55223 17.027 8.54166 16.9732 8.54182 16.9188V8.81333C8.54166 8.75895 8.55223 8.70507 8.57293 8.65479C8.59363 8.6045 8.62405 8.55879 8.66245 8.52028C8.70085 8.48177 8.74647 8.45121 8.7967 8.43037C8.84692 8.40952 8.90077 8.39879 8.95515 8.39879H10.9455C11.0554 8.39879 11.1608 8.44246 11.2386 8.52021C11.3163 8.59795 11.36 8.70339 11.36 8.81333V9.51394C11.8303 8.80727 12.5273 8.26424 14.0145 8.26424C17.3091 8.26424 17.2873 11.3406 17.2873 13.0303L17.2897 16.9139Z" fill="#1F4DA8"/>
</svg>
