<svg width="19" height="19" viewBox="0 0 19 19" fill="none" xmlns="http://www.w3.org/2000/svg">
<path d="M0.851562 2.97307C0.851562 2.36379 1.05427 1.86114 1.45967 1.46513C1.86507 1.0691 2.39211 0.871094 3.04075 0.871094C3.67782 0.871094 4.19326 1.06605 4.58708 1.45599C4.99248 1.85811 5.19519 2.38206 5.19519 3.0279C5.19519 3.6128 4.99829 4.1002 4.60446 4.49014C4.19906 4.89226 3.66623 5.09331 3.006 5.09331H2.98863C2.35156 5.09331 1.83612 4.89226 1.4423 4.49014C1.04847 4.08802 0.851562 3.58233 0.851562 2.97307ZM1.07743 18.9663V6.75661H4.93457V18.9663H1.07743ZM7.07164 18.9663H10.9288V12.1486C10.9288 11.7221 10.9751 11.3931 11.0678 11.1616C11.2299 10.7473 11.4761 10.397 11.8062 10.1106C12.1363 9.82427 12.5504 9.6811 13.0485 9.6811C14.3458 9.6811 14.9944 10.6011 14.9944 12.4411V18.9663H18.8516V11.9658C18.8516 10.1624 18.4462 8.79461 17.6353 7.86243C16.8245 6.93025 15.7531 6.46417 14.4211 6.46417C12.9269 6.46417 11.7628 7.14045 10.9288 8.49302V8.52958H10.9114L10.9288 8.49302V6.75661H7.07164C7.0948 7.14654 7.10639 8.35897 7.10639 10.3939C7.10639 12.4289 7.0948 15.2863 7.07164 18.9663Z" fill="#E6E8F1"/>
</svg>
