<svg width="619" height="424" viewBox="0 0 619 424" fill="none" xmlns="http://www.w3.org/2000/svg">
<g clip-path="url(#clip0_1699_38225)">
<path d="M11.2807 208.55L14.8178 200.416H9.91627V199.277H16.1822V200.244L12.6585 208.55H11.2807ZM20.4454 208.709C19.7918 208.709 19.231 208.594 18.763 208.365C18.2949 208.126 17.924 207.808 17.6502 207.411C17.3764 207.005 17.2086 206.55 17.1468 206.047H18.445C18.5334 206.497 18.7541 206.868 19.1074 207.159C19.4607 207.442 19.9067 207.583 20.4454 207.583C20.8516 207.583 21.2005 207.486 21.4919 207.292C21.7834 207.098 22.0086 206.837 22.1675 206.51C22.3265 206.183 22.406 205.821 22.406 205.424C22.406 205 22.3221 204.634 22.1543 204.324C21.9953 204.006 21.7701 203.759 21.4787 203.583C21.1961 203.406 20.8649 203.318 20.4851 203.318C20.0259 203.318 19.6285 203.424 19.2929 203.636C18.9661 203.839 18.7276 204.099 18.5775 204.417H17.2925L18.0609 199.277H23.0551V200.43H19.0809L18.5908 203.026C18.8027 202.788 19.0853 202.593 19.4386 202.443C19.8007 202.293 20.2113 202.218 20.6706 202.218C21.1386 202.218 21.5581 202.302 21.9291 202.47C22.3 202.629 22.6135 202.854 22.8696 203.145C23.1346 203.437 23.3333 203.777 23.4658 204.165C23.6071 204.554 23.6777 204.965 23.6777 205.397C23.6777 205.866 23.6026 206.298 23.4525 206.696C23.3024 207.093 23.086 207.446 22.8034 207.755C22.5296 208.056 22.1896 208.29 21.7834 208.458C21.3859 208.625 20.9399 208.709 20.4454 208.709ZM26.516 208.55L31.8415 199.277H33.1529L27.8275 208.55H26.516ZM32.6098 208.709C32.1947 208.709 31.8238 208.617 31.497 208.431C31.1703 208.246 30.9097 207.985 30.7154 207.649C30.5211 207.305 30.424 206.903 30.424 206.444C30.424 205.967 30.5211 205.561 30.7154 205.225C30.9097 204.89 31.1703 204.629 31.497 204.444C31.8238 204.258 32.1903 204.165 32.5965 204.165C33.0205 204.165 33.3914 204.258 33.7093 204.444C34.0361 204.629 34.2922 204.89 34.4777 205.225C34.672 205.561 34.7691 205.967 34.7691 206.444C34.7691 206.903 34.672 207.305 34.4777 207.649C34.2922 207.985 34.0361 208.246 33.7093 208.431C33.3826 208.617 33.016 208.709 32.6098 208.709ZM32.5833 207.729C32.7864 207.729 32.9675 207.68 33.1264 207.583C33.2942 207.486 33.4267 207.345 33.5239 207.159C33.6298 206.965 33.6828 206.722 33.6828 206.431C33.6828 206.139 33.6343 205.901 33.5371 205.715C33.44 205.521 33.3075 205.375 33.1397 205.278C32.9807 205.181 32.7997 205.132 32.5965 205.132C32.4111 205.132 32.2345 205.181 32.0667 205.278C31.8989 205.375 31.762 205.521 31.656 205.715C31.5588 205.901 31.5103 206.139 31.5103 206.431C31.5103 206.722 31.5588 206.965 31.656 207.159C31.762 207.345 31.8944 207.486 32.0534 207.583C32.2212 207.68 32.3978 207.729 32.5833 207.729ZM27.1519 203.675C26.7457 203.675 26.3792 203.583 26.0524 203.397C25.7256 203.212 25.4607 202.951 25.2576 202.616C25.0633 202.271 24.9661 201.865 24.9661 201.397C24.9661 200.929 25.0633 200.527 25.2576 200.191C25.4607 199.856 25.7256 199.595 26.0524 199.41C26.388 199.224 26.7589 199.131 27.1652 199.131C27.5714 199.131 27.9379 199.224 28.2647 199.41C28.5915 199.595 28.8476 199.856 29.033 200.191C29.2273 200.527 29.3245 200.929 29.3245 201.397C29.3245 201.865 29.2273 202.271 29.033 202.616C28.8476 202.951 28.587 203.212 28.2514 203.397C27.9247 203.583 27.5582 203.675 27.1519 203.675ZM27.1519 202.695C27.3462 202.695 27.5228 202.646 27.6818 202.549C27.8496 202.452 27.9821 202.311 28.0792 202.125C28.1764 201.931 28.2249 201.688 28.2249 201.397C28.2249 201.105 28.1764 200.862 28.0792 200.668C27.9821 200.474 27.8496 200.328 27.6818 200.231C27.5228 200.134 27.3506 200.085 27.1652 200.085C26.9709 200.085 26.7854 200.134 26.6088 200.231C26.441 200.328 26.3041 200.474 26.1981 200.668C26.101 200.862 26.0524 201.105 26.0524 201.397C26.0524 201.679 26.101 201.918 26.1981 202.112C26.3041 202.306 26.441 202.452 26.6088 202.549C26.7766 202.646 26.9576 202.695 27.1519 202.695Z" fill="#2C2C2E"/>
<path d="M462.251 60.7872C424.677 23.2255 372.776 0.00146484 315.439 0.00146484C258.101 0.00146484 206.201 23.2255 168.626 60.7872C131.052 98.3488 107.82 150.232 107.82 207.55C107.82 264.868 131.052 316.752 168.626 354.313C206.201 391.875 258.101 415.099 315.439 415.099C372.776 415.099 424.677 391.875 462.251 354.313C499.826 316.752 523.058 264.868 523.058 207.55C523.058 150.232 499.826 98.3488 462.251 60.7872Z" fill="#F9F9F9"/>
<path d="M463.109 207.55H501.651C501.651 156.151 480.807 109.606 447.105 75.9312L419.84 103.187C446.556 129.895 463.093 166.795 463.093 207.566L463.109 207.55Z" stroke="#C1C1C1" stroke-width="0.257167" stroke-miterlimit="10"/>
<path d="M315.439 59.9312V21.4019C264.022 21.4019 217.462 42.239 183.775 75.93L211.041 103.186C237.757 76.4783 274.67 59.9473 315.455 59.9473L315.439 59.9312Z" stroke="#C1C1C1" stroke-width="0.257167" stroke-miterlimit="10"/>
<path d="M211.026 103.17L183.761 75.9136C150.059 109.605 129.215 156.133 129.215 207.533H167.757C167.757 166.778 184.278 129.861 211.01 103.153L211.026 103.17Z" stroke="#C1C1C1" stroke-width="0.257167" stroke-miterlimit="10"/>
<path d="M463.107 207.549C463.107 248.304 446.586 285.221 419.854 311.928L447.119 339.184C480.821 305.493 501.665 258.965 501.665 207.565H463.123L463.107 207.549Z" stroke="#C1C1C1" stroke-width="0.257167" stroke-miterlimit="10"/>
<path d="M419.855 103.17L447.12 75.9143C413.418 42.2234 366.874 21.3862 315.457 21.3862V59.9156C356.226 59.9156 393.155 76.4304 419.871 103.154L419.855 103.17Z" stroke="#C1C1C1" stroke-width="0.257167" stroke-miterlimit="10"/>
<path d="M167.788 207.549H129.246C129.246 258.948 150.09 305.493 183.793 339.168L211.058 311.912C184.341 285.204 167.805 248.304 167.805 207.533L167.788 207.549Z" stroke="#C1C1C1" stroke-width="0.257167" stroke-miterlimit="10"/>
<path d="M211.027 311.93L183.762 339.186C217.464 372.877 264.008 393.714 315.425 393.714V355.184C274.656 355.184 237.727 338.67 211.011 311.946L211.027 311.93Z" stroke="#C1C1C1" stroke-width="0.257167" stroke-miterlimit="10"/>
<path d="M315.442 355.167V393.696C366.859 393.696 413.419 372.859 447.105 339.168L419.84 311.912C393.123 338.62 356.211 355.151 315.426 355.151L315.442 355.167Z" stroke="#C1C1C1" stroke-width="0.257167" stroke-miterlimit="10"/>
<path d="M315.44 98.4771V59.9478C274.671 59.9478 237.742 76.4626 211.025 103.186L238.291 130.442C258.038 110.702 285.319 98.4932 315.44 98.4932V98.4771Z" stroke="#C1C1C1" stroke-width="0.257167" stroke-miterlimit="10"/>
<path d="M206.331 207.549H167.789C167.789 248.304 184.309 285.221 211.042 311.928L238.307 284.672C218.56 264.932 206.348 237.66 206.348 207.549H206.331Z" stroke="#C1C1C1" stroke-width="0.257167" stroke-miterlimit="10"/>
<path d="M392.606 130.428L419.871 103.172C393.155 76.4641 356.242 59.9331 315.457 59.9331V98.4624C345.594 98.4624 372.859 110.671 392.606 130.412V130.428Z" stroke="#C1C1C1" stroke-width="0.257167" stroke-miterlimit="10"/>
<path d="M238.292 130.426L211.027 103.17C184.31 129.878 167.773 166.778 167.773 207.55H206.316C206.316 177.423 218.529 150.167 238.276 130.426H238.292Z" stroke="#C1C1C1" stroke-width="0.257167" stroke-miterlimit="10"/>
<path d="M238.291 284.674L211.025 311.93C237.742 338.637 274.655 355.168 315.44 355.168V316.639C285.303 316.639 258.038 304.43 238.291 284.69V284.674Z" stroke="#C1C1C1" stroke-width="0.257167" stroke-miterlimit="10"/>
<path d="M419.857 103.17L392.592 130.426C412.339 150.167 424.552 177.439 424.552 207.55H463.094C463.094 166.795 446.574 129.878 419.841 103.17H419.857Z" stroke="#C1C1C1" stroke-width="0.257167" stroke-miterlimit="10"/>
<path d="M392.607 284.672L419.873 311.928C446.589 285.221 463.126 248.32 463.126 207.549H424.584C424.584 237.676 412.371 264.932 392.624 284.672H392.607Z" stroke="#C1C1C1" stroke-width="0.257167" stroke-miterlimit="10"/>
<path d="M315.439 316.623V355.152C356.208 355.152 393.137 338.637 419.854 311.913L392.589 284.657C372.841 304.398 345.56 316.606 315.439 316.606V316.623Z" stroke="#C1C1C1" stroke-width="0.257167" stroke-miterlimit="10"/>
<path d="M244.872 207.549H206.33C206.33 237.676 218.543 264.932 238.29 284.672L265.555 257.416C252.794 244.659 244.888 227.015 244.888 207.533L244.872 207.549Z" stroke="#C1C1C1" stroke-width="0.257167" stroke-miterlimit="10"/>
<path d="M315.442 137.005V98.4761C285.305 98.4761 258.04 110.685 238.293 130.425L265.558 157.681C278.336 144.924 295.969 137.022 315.458 137.022L315.442 137.005Z" stroke="#C1C1C1" stroke-width="0.257167" stroke-miterlimit="10"/>
<path d="M265.558 257.434L238.293 284.69C258.04 304.43 285.321 316.639 315.442 316.639V278.109C295.953 278.109 278.32 270.207 265.542 257.45L265.558 257.434Z" stroke="#C1C1C1" stroke-width="0.257167" stroke-miterlimit="10"/>
<path d="M265.555 157.665L238.29 130.409C218.543 150.15 206.33 177.422 206.33 207.532H244.872C244.872 188.05 252.778 170.422 265.539 157.649L265.555 157.665Z" stroke="#C1C1C1" stroke-width="0.257167" stroke-miterlimit="10"/>
<path d="M315.439 137.007C334.928 137.007 352.562 144.91 365.34 157.667L392.605 130.411C372.858 110.67 345.576 98.4614 315.456 98.4614V136.991L315.439 137.007Z" stroke="#C1C1C1" stroke-width="0.257167" stroke-miterlimit="10"/>
<path d="M386.007 207.55H424.549C424.549 177.424 412.336 150.168 392.589 130.427L365.324 157.683C378.086 170.456 385.991 188.084 385.991 207.567L386.007 207.55Z" stroke="#C1C1C1" stroke-width="0.257167" stroke-miterlimit="10"/>
<path d="M365.342 257.434L392.607 284.69C412.354 264.95 424.567 237.678 424.567 207.567H386.025C386.025 227.049 378.119 244.677 365.358 257.45L365.342 257.434Z" stroke="#C1C1C1" stroke-width="0.257167" stroke-miterlimit="10"/>
<path d="M315.442 278.092V316.621C345.579 316.621 372.844 304.412 392.591 284.672L365.326 257.416C352.548 270.189 334.915 278.076 315.426 278.076L315.442 278.092Z" stroke="#C1C1C1" stroke-width="0.257167" stroke-miterlimit="10"/>
<path d="M315.44 207.549H244.873C244.873 227.032 252.778 244.659 265.54 257.433L315.44 207.549Z" stroke="#C1C1C1" stroke-width="0.257167" stroke-miterlimit="10"/>
<path d="M315.441 207.549L265.541 257.433C278.319 270.206 295.952 278.092 315.441 278.092V207.549Z" stroke="#C1C1C1" stroke-width="0.257167" stroke-miterlimit="10"/>
<path d="M265.557 157.666C252.796 170.439 244.891 188.067 244.891 207.549H315.457L265.557 157.666Z" stroke="#C1C1C1" stroke-width="0.257167" stroke-miterlimit="10"/>
<path d="M386.006 207.549C386.006 188.067 378.101 170.439 365.34 157.666L315.439 207.549H386.006Z" stroke="#C1C1C1" stroke-width="0.257167" stroke-miterlimit="10"/>
<path d="M315.439 278.092C334.928 278.092 352.562 270.19 365.34 257.433L315.439 207.549V278.092Z" stroke="#C1C1C1" stroke-width="0.257167" stroke-miterlimit="10"/>
<path d="M365.34 157.667C352.562 144.91 334.928 137.007 315.439 137.007V207.55L365.34 157.667Z" stroke="#C1C1C1" stroke-width="0.257167" stroke-miterlimit="10"/>
<path d="M315.441 207.55V137.007C295.952 137.007 278.319 144.91 265.541 157.667L315.441 207.55Z" stroke="#C1C1C1" stroke-width="0.257167" stroke-miterlimit="10"/>
<path d="M315.439 207.549L365.34 257.433C378.101 244.676 386.006 227.032 386.006 207.549H315.439Z" stroke="#C1C1C1" stroke-width="0.257167" stroke-miterlimit="10"/>
<path d="M315.439 59.9307V21.4014C264.022 21.4014 217.462 42.2385 183.775 75.9295L211.041 103.185C237.757 76.4778 274.67 59.9468 315.455 59.9468L315.439 59.9307Z" fill="#DEDEDE"/>
<path d="M211.026 103.169L183.761 75.9131C150.059 109.604 129.215 156.133 129.215 207.532H167.757C167.757 166.777 184.278 129.861 211.01 103.153L211.026 103.169Z" fill="#DEDEDE"/>
<path d="M167.788 207.548H129.246C129.246 258.948 150.09 305.493 183.793 339.167L211.058 311.911C184.341 285.204 167.805 248.303 167.805 207.532L167.788 207.548Z" fill="#DEDEDE"/>
<path d="M211.027 311.927L183.762 339.183C217.464 372.874 264.008 393.711 315.425 393.711V355.182C274.656 355.182 237.727 338.667 211.011 311.943L211.027 311.927Z" fill="#DEDEDE"/>
<path d="M315.442 355.166V393.695C366.859 393.695 413.419 372.858 447.105 339.167L419.84 311.911C393.123 338.619 356.211 355.15 315.426 355.15L315.442 355.166Z" fill="#F7DBB1"/>
<path d="M315.44 98.4766V59.9473C274.671 59.9473 237.742 76.4621 211.025 103.186L238.291 130.442C258.038 110.701 285.319 98.4927 315.44 98.4927V98.4766Z" fill="#A2A2A2"/>
<path d="M206.331 207.548H167.789C167.789 248.303 184.309 285.219 211.042 311.927L238.307 284.671C218.56 264.931 206.348 237.658 206.348 207.548H206.331Z" fill="#A2A2A2"/>
<path d="M238.292 130.425L211.027 103.169C184.31 129.877 167.773 166.778 167.773 207.549H206.316C206.316 177.422 218.529 150.166 238.276 130.425H238.292Z" fill="#A2A2A2"/>
<path d="M238.291 284.672L211.025 311.928C237.742 338.636 274.655 355.167 315.44 355.167V316.637C285.303 316.637 258.038 304.428 238.291 284.688V284.672Z" fill="#A2A2A2"/>
<path d="M392.607 284.671L419.873 311.927C446.589 285.219 463.126 248.319 463.126 207.548H424.584C424.584 237.675 412.371 264.931 392.624 284.671H392.607Z" fill="#4574D1"/>
<path d="M315.439 316.622V355.151C356.208 355.151 393.137 338.636 419.854 311.912L392.589 284.656C372.841 304.397 345.56 316.605 315.439 316.605V316.622Z" fill="#E3B369"/>
<path d="M244.872 207.548H206.33C206.33 237.675 218.543 264.931 238.29 284.672L265.555 257.416C252.794 244.658 244.889 227.015 244.889 207.532L244.872 207.548Z" fill="#67676A"/>
<path d="M315.442 137.005V98.4756C285.305 98.4756 258.04 110.684 238.293 130.425L265.558 157.681C278.336 144.924 295.969 137.021 315.458 137.021L315.442 137.005Z" fill="#67676A"/>
<path d="M265.558 257.431L238.293 284.687C258.04 304.428 285.321 316.636 315.442 316.636V278.107C295.953 278.107 278.32 270.204 265.542 257.447L265.558 257.431Z" fill="#67676A"/>
<path d="M265.555 157.665L238.29 130.409C218.543 150.149 206.33 177.421 206.33 207.532H244.872C244.872 188.049 252.778 170.422 265.539 157.649L265.555 157.665Z" fill="#67676A"/>
<path d="M386.007 207.548H424.549C424.549 177.422 412.336 150.166 392.589 130.425L365.324 157.681C378.086 170.454 385.991 188.082 385.991 207.565L386.007 207.548Z" fill="#5D5D5D"/>
<path d="M365.342 257.432L392.607 284.688C412.354 264.947 424.567 237.675 424.567 207.564H386.025C386.025 227.047 378.119 244.675 365.358 257.448L365.342 257.432Z" fill="#1F4DA8"/>
<path d="M315.442 278.091V316.621C345.579 316.621 372.844 304.412 392.591 284.672L365.326 257.416C352.548 270.189 334.915 278.075 315.426 278.075L315.442 278.091Z" fill="#D79F4B"/>
<path d="M315.44 207.548H244.873C244.873 227.03 252.778 244.658 265.54 257.431L315.44 207.548Z" fill="#1B1B1E"/>
<path d="M315.441 207.548L265.541 257.431C278.319 270.204 295.952 278.091 315.441 278.091V207.548Z" fill="#1B1B1E"/>
<path d="M265.557 157.666C252.796 170.439 244.891 188.066 244.891 207.549H315.457L265.557 157.666Z" fill="#1B1B1E"/>
<path d="M386.006 207.549C386.006 188.066 378.101 170.439 365.34 157.666L315.439 207.549H386.006Z" fill="#1B1B1E"/>
<path d="M315.439 278.091C334.928 278.091 352.562 270.188 365.34 257.431L315.439 207.548V278.091Z" fill="#B98639"/>
<path d="M365.34 157.665C352.562 144.908 334.928 137.005 315.439 137.005V207.548L365.34 157.665Z" fill="#1F4DA8"/>
<path d="M315.441 207.548V137.005C295.952 137.005 278.319 144.908 265.541 157.665L315.441 207.548Z" fill="#1B1B1E"/>
<path d="M315.439 207.548L365.34 257.431C378.101 244.674 386.006 227.03 386.006 207.548H315.439Z" fill="#1A3E85"/>
<path d="M315.439 59.9307V21.4014C264.022 21.4014 217.462 42.2385 183.775 75.9295L211.041 103.185C237.757 76.4778 274.67 59.9468 315.455 59.9468L315.439 59.9307Z" stroke="#2C2C2E" stroke-width="0.55906" stroke-miterlimit="10"/>
<path d="M211.026 103.169L183.761 75.9131C150.059 109.604 129.215 156.133 129.215 207.532H167.757C167.757 166.777 184.278 129.861 211.01 103.153L211.026 103.169Z" stroke="#2C2C2E" stroke-width="0.55906" stroke-miterlimit="10"/>
<path d="M167.788 207.548H129.246C129.246 258.948 150.09 305.493 183.793 339.167L211.058 311.911C184.341 285.204 167.805 248.303 167.805 207.532L167.788 207.548Z" stroke="#2C2C2E" stroke-width="0.55906" stroke-miterlimit="10"/>
<path d="M211.027 311.927L183.762 339.183C217.464 372.874 264.008 393.711 315.425 393.711V355.182C274.656 355.182 237.727 338.667 211.011 311.943L211.027 311.927Z" stroke="#2C2C2E" stroke-width="0.55906" stroke-miterlimit="10"/>
<path d="M315.442 355.166V393.695C366.859 393.695 413.419 372.858 447.105 339.167L419.84 311.911C393.123 338.619 356.211 355.15 315.426 355.15L315.442 355.166Z" stroke="#2C2C2E" stroke-width="0.55906" stroke-miterlimit="10"/>
<path d="M315.44 98.4766V59.9473C274.671 59.9473 237.742 76.4621 211.025 103.186L238.291 130.442C258.038 110.701 285.319 98.4927 315.44 98.4927V98.4766Z" stroke="#2C2C2E" stroke-width="0.55906" stroke-miterlimit="10"/>
<path d="M206.331 207.548H167.789C167.789 248.303 184.309 285.219 211.042 311.927L238.307 284.671C218.56 264.931 206.348 237.658 206.348 207.548H206.331Z" stroke="#2C2C2E" stroke-width="0.55906" stroke-miterlimit="10"/>
<path d="M238.292 130.425L211.027 103.169C184.31 129.877 167.773 166.778 167.773 207.549H206.316C206.316 177.422 218.529 150.166 238.276 130.425H238.292Z" stroke="#2C2C2E" stroke-width="0.55906" stroke-miterlimit="10"/>
<path d="M238.291 284.672L211.025 311.928C237.742 338.636 274.655 355.167 315.44 355.167V316.637C285.303 316.637 258.038 304.428 238.291 284.688V284.672Z" stroke="#2C2C2E" stroke-width="0.55906" stroke-miterlimit="10"/>
<path d="M392.607 284.671L419.873 311.927C446.589 285.219 463.126 248.319 463.126 207.548H424.584C424.584 237.675 412.371 264.931 392.624 284.671H392.607Z" stroke="#1F4DA8" stroke-width="0.55906" stroke-miterlimit="10"/>
<path d="M315.439 316.622V355.151C356.208 355.151 393.137 338.636 419.854 311.912L392.589 284.656C372.841 304.397 345.56 316.605 315.439 316.605V316.622Z" stroke="#2C2C2E" stroke-width="0.55906" stroke-miterlimit="10"/>
<path d="M244.872 207.548H206.33C206.33 237.675 218.543 264.931 238.29 284.672L265.555 257.416C252.794 244.658 244.888 227.015 244.888 207.532L244.872 207.548Z" stroke="#2C2C2E" stroke-width="0.55906" stroke-miterlimit="10"/>
<path d="M315.442 137.005V98.4756C285.305 98.4756 258.04 110.684 238.293 130.425L265.558 157.681C278.336 144.924 295.969 137.021 315.458 137.021L315.442 137.005Z" stroke="#2C2C2E" stroke-width="0.55906" stroke-miterlimit="10"/>
<path d="M265.558 257.431L238.293 284.687C258.04 304.428 285.321 316.636 315.442 316.636V278.107C295.953 278.107 278.32 270.204 265.542 257.447L265.558 257.431Z" stroke="#2C2C2E" stroke-width="0.55906" stroke-miterlimit="10"/>
<path d="M265.555 157.665L238.29 130.409C218.543 150.149 206.33 177.421 206.33 207.532H244.872C244.872 188.049 252.778 170.422 265.539 157.649L265.555 157.665Z" stroke="#2C2C2E" stroke-width="0.55906" stroke-miterlimit="10"/>
<path d="M386.007 207.548H424.549C424.549 177.422 412.336 150.166 392.589 130.425L365.324 157.681C378.086 170.454 385.991 188.082 385.991 207.565L386.007 207.548Z" stroke="#2C2C2E" stroke-width="0.55906" stroke-miterlimit="10"/>
<path d="M365.342 257.432L392.607 284.688C412.354 264.947 424.567 237.675 424.567 207.564H386.025C386.025 227.047 378.119 244.675 365.358 257.448L365.342 257.432Z" stroke="#2C2C2E" stroke-width="0.55906" stroke-miterlimit="10"/>
<path d="M315.442 278.091V316.621C345.579 316.621 372.844 304.412 392.591 284.672L365.326 257.416C352.548 270.189 334.915 278.075 315.426 278.075L315.442 278.091Z" stroke="#2C2C2E" stroke-width="0.55906" stroke-miterlimit="10"/>
<path d="M315.44 207.548H244.873C244.873 227.03 252.778 244.658 265.54 257.431L315.44 207.548Z" stroke="#2C2C2E" stroke-width="0.55906" stroke-miterlimit="10"/>
<path d="M315.441 207.548L265.541 257.431C278.319 270.204 295.952 278.091 315.441 278.091V207.548Z" stroke="#2C2C2E" stroke-width="0.55906" stroke-miterlimit="10"/>
<path d="M265.557 157.666C252.796 170.439 244.891 188.066 244.891 207.549H315.457L265.557 157.666Z" stroke="#2C2C2E" stroke-width="0.55906" stroke-miterlimit="10"/>
<path d="M386.006 207.549C386.006 188.066 378.101 170.439 365.34 157.666L315.439 207.549H386.006Z" stroke="#2C2C2E" stroke-width="0.55906" stroke-miterlimit="10"/>
<path d="M315.439 278.091C334.928 278.091 352.562 270.188 365.34 257.431L315.439 207.548V278.091Z" stroke="#2C2C2E" stroke-width="0.55906" stroke-miterlimit="10"/>
<path d="M365.34 157.665C352.562 144.908 334.928 137.005 315.439 137.005V207.548L365.34 157.665Z" stroke="#2C2C2E" stroke-width="0.55906" stroke-miterlimit="10"/>
<path d="M315.441 207.548V137.005C295.952 137.005 278.319 144.908 265.541 157.665L315.441 207.548Z" stroke="#2C2C2E" stroke-width="0.55906" stroke-miterlimit="10"/>
<path d="M315.439 207.548L365.34 257.431C378.101 244.674 386.006 227.03 386.006 207.548H315.439Z" stroke="#2C2C2E" stroke-width="0.55906" stroke-miterlimit="10"/>
<path d="M466.234 276.934H538.495" stroke="#2C2C2E" stroke-width="0.55906" stroke-miterlimit="10"/>
<path d="M466.316 278.45C465.477 278.45 464.799 277.772 464.799 276.933C464.799 276.095 465.477 275.417 466.316 275.417C467.155 275.417 467.833 276.095 467.833 276.933C467.833 277.772 467.155 278.45 466.316 278.45Z" fill="#2C2C2E"/>
<path d="M536.883 278.303L538.254 276.932L536.883 275.561H538.045L539.416 276.932L538.045 278.303H536.883Z" fill="#2C2C2E"/>
<path d="M403.314 385.796H465.347" stroke="#2C2C2E" stroke-width="0.55906" stroke-miterlimit="10"/>
<path d="M403.398 387.312C402.559 387.312 401.881 386.635 401.881 385.796C401.881 384.957 402.559 384.279 403.398 384.279C404.237 384.279 404.915 384.957 404.915 385.796C404.915 386.635 404.237 387.312 403.398 387.312Z" fill="#2C2C2E"/>
<path d="M463.752 387.166L465.124 385.795L463.752 384.424H464.914L466.269 385.795L464.914 387.166H463.752Z" fill="#2C2C2E"/>
<path d="M443.646 160.813H533.654" stroke="#2C2C2E" stroke-width="0.55906" stroke-miterlimit="10"/>
<path d="M443.728 162.329C442.889 162.329 442.211 161.652 442.211 160.813C442.211 159.974 442.889 159.296 443.728 159.296C444.567 159.296 445.245 159.974 445.245 160.813C445.245 161.652 444.567 162.329 443.728 162.329Z" fill="#2C2C2E"/>
<path d="M532.041 162.183L533.413 160.812L532.041 159.44H533.203L534.575 160.812L533.203 162.183H532.041Z" fill="#2C2C2E"/>
<path d="M456.746 42.0146H358.85V83.576" stroke="#2C2C2E" stroke-width="0.55906" stroke-miterlimit="10"/>
<path d="M455.131 40.6445L456.503 42.0157L455.131 43.3708H456.293L457.664 42.0157L456.293 40.6445H455.131Z" fill="#2C2C2E"/>
<path d="M357.334 83.4968C357.334 84.3357 358.012 85.0132 358.851 85.0132C359.69 85.0132 360.368 84.3357 360.368 83.4968C360.368 82.658 359.69 81.9805 358.851 81.9805C358.012 81.9805 357.334 82.658 357.334 83.4968Z" fill="#2C2C2E"/>
<path d="M77.2109 206.889H117.044" stroke="#2C2C2E" stroke-width="0.503154" stroke-miterlimit="10"/>
<path d="M78.6645 208.117L77.422 206.891L78.6645 205.648H77.6156L76.373 206.891L77.6156 208.117H78.6645Z" fill="#2C2C2E"/>
<path d="M116.983 208.261C117.741 208.261 118.355 207.648 118.355 206.89C118.355 206.133 117.741 205.519 116.983 205.519C116.225 205.519 115.611 206.133 115.611 206.89C115.611 207.648 116.225 208.261 116.983 208.261Z" fill="#2C2C2E"/>
<path d="M14.0572 233.552V232.926C14.5588 232.531 15.0357 232.132 15.4879 231.729C15.9471 231.326 16.3534 230.927 16.7066 230.531C17.0599 230.129 17.3354 229.737 17.5333 229.355C17.7381 228.973 17.8406 228.606 17.8406 228.253C17.8406 227.991 17.7947 227.751 17.7028 227.532C17.611 227.306 17.4626 227.122 17.2577 226.981C17.0599 226.84 16.7914 226.769 16.4523 226.769C16.1202 226.769 15.8447 226.843 15.6256 226.992C15.4066 227.133 15.2406 227.324 15.1275 227.564C15.0216 227.797 14.9686 228.055 14.9686 228.338H14.1102C14.1172 227.85 14.2197 227.433 14.4175 227.087C14.6224 226.734 14.9015 226.465 15.2547 226.282C15.608 226.098 16.0107 226.006 16.4629 226.006C16.908 226.006 17.3001 226.091 17.6392 226.26C17.9784 226.423 18.2433 226.667 18.4341 226.992C18.6319 227.317 18.7308 227.726 18.7308 228.221C18.7308 228.567 18.6566 228.913 18.5083 229.26C18.3669 229.606 18.1762 229.945 17.936 230.277C17.6958 230.602 17.4273 230.916 17.1305 231.22C16.8409 231.524 16.5406 231.81 16.2297 232.079C15.9259 232.347 15.6398 232.591 15.3713 232.81H18.9852V233.552H14.0572ZM23.0166 233.679C22.3666 233.679 21.8049 233.52 21.3316 233.202C20.8653 232.877 20.5085 232.428 20.2612 231.856C20.0139 231.277 19.8903 230.606 19.8903 229.843C19.8903 229.079 20.0139 228.412 20.2612 227.84C20.5085 227.26 20.8653 226.812 21.3316 226.494C21.8049 226.169 22.3666 226.006 23.0166 226.006C23.6666 226.006 24.2213 226.169 24.6805 226.494C25.1468 226.812 25.5036 227.26 25.7509 227.84C25.9982 228.412 26.1218 229.079 26.1218 229.843C26.1218 230.606 25.9982 231.277 25.7509 231.856C25.5036 232.428 25.1468 232.877 24.6805 233.202C24.2213 233.52 23.6666 233.679 23.0166 233.679ZM23.006 232.895C23.4299 232.895 23.8079 232.775 24.14 232.534C24.4721 232.287 24.7335 231.937 24.9242 231.485C25.115 231.026 25.2104 230.478 25.2104 229.843C25.2104 229.207 25.115 228.663 24.9242 228.21C24.7335 227.751 24.4721 227.401 24.14 227.161C23.8079 226.921 23.4299 226.801 23.006 226.801C22.5821 226.801 22.2006 226.921 21.8615 227.161C21.5294 227.401 21.268 227.751 21.0772 228.21C20.8935 228.663 20.8017 229.207 20.8017 229.843C20.8017 230.478 20.8935 231.026 21.0772 231.485C21.268 231.937 21.5294 232.287 21.8615 232.534C22.2006 232.775 22.5821 232.895 23.006 232.895ZM27.201 233.552V232.926C27.7026 232.531 28.1795 232.132 28.6317 231.729C29.0909 231.326 29.4971 230.927 29.8504 230.531C30.2037 230.129 30.4792 229.737 30.677 229.355C30.8819 228.973 30.9844 228.606 30.9844 228.253C30.9844 227.991 30.9385 227.751 30.8466 227.532C30.7548 227.306 30.6064 227.122 30.4015 226.981C30.2037 226.84 29.9352 226.769 29.5961 226.769C29.264 226.769 28.9885 226.843 28.7694 226.992C28.5504 227.133 28.3844 227.324 28.2713 227.564C28.1654 227.797 28.1124 228.055 28.1124 228.338H27.2539C27.261 227.85 27.3635 227.433 27.5613 227.087C27.7662 226.734 28.0452 226.465 28.3985 226.282C28.7518 226.098 29.1545 226.006 29.6067 226.006C30.0518 226.006 30.4439 226.091 30.783 226.26C31.1221 226.423 31.3871 226.667 31.5779 226.992C31.7757 227.317 31.8746 227.726 31.8746 228.221C31.8746 228.567 31.8004 228.913 31.652 229.26C31.5107 229.606 31.32 229.945 31.0798 230.277C30.8395 230.602 30.5711 230.916 30.2743 231.22C29.9846 231.524 29.6844 231.81 29.3735 232.079C29.0697 232.347 28.7836 232.591 28.5151 232.81H32.1289V233.552H27.201ZM36.6073 233.552V231.962H32.845V231.273L36.4483 226.133H37.4869V231.178H38.5891V231.962H37.4869V233.552H36.6073ZM33.8306 231.178H36.6497V227.119L33.8306 231.178Z" fill="#8D8E90"/>
<path d="M506.456 41.7129C505.966 41.7129 505.509 41.6113 505.085 41.4082C504.665 41.2051 504.306 40.9269 504.005 40.5736C503.709 40.2159 503.497 39.8053 503.369 39.3416L504.502 39.0369C504.582 39.3504 504.723 39.622 504.926 39.8516C505.129 40.0768 505.365 40.2535 505.635 40.3815C505.908 40.5052 506.193 40.567 506.489 40.567C506.878 40.567 507.227 40.4742 507.536 40.2888C507.849 40.0989 508.096 39.8494 508.278 39.5403C508.459 39.2268 508.549 38.8846 508.549 38.5137C508.549 38.1295 508.454 37.7828 508.264 37.4737C508.079 37.1602 507.829 36.9129 507.516 36.7319C507.202 36.5508 506.86 36.4603 506.489 36.4603C506.07 36.4603 505.71 36.5486 505.409 36.7253C505.114 36.8975 504.88 37.1094 504.707 37.3611L503.661 36.9637L503.952 31.9761H509.072V33.0955H504.522L505.045 32.6054L504.8 36.5994L504.542 36.2616C504.807 35.979 505.122 35.7604 505.489 35.6059C505.86 35.4513 506.237 35.374 506.622 35.374C507.213 35.374 507.743 35.5131 508.211 35.7913C508.679 36.0651 509.05 36.4405 509.324 36.9174C509.598 37.3898 509.735 37.9219 509.735 38.5137C509.735 39.1009 509.585 39.6375 509.284 40.1232C508.984 40.6045 508.584 40.9909 508.085 41.2823C507.591 41.5694 507.048 41.7129 506.456 41.7129ZM512.379 41.5142L511.584 40.7193L520.34 31.9761L521.135 32.771L512.379 41.5142ZM519.148 41.7129C518.711 41.7129 518.311 41.6069 517.949 41.3949C517.591 41.1786 517.304 40.8915 517.088 40.5339C516.872 40.1718 516.763 39.7699 516.763 39.3284C516.763 38.8956 516.874 38.4982 517.095 38.1361C517.315 37.774 517.607 37.4848 517.969 37.2684C518.331 37.052 518.724 36.9438 519.148 36.9438C519.585 36.9438 519.985 37.052 520.347 37.2684C520.709 37.4804 520.996 37.7674 521.208 38.1295C521.424 38.4872 521.532 38.8868 521.532 39.3284C521.532 39.7699 521.424 40.1718 521.208 40.5339C520.996 40.8915 520.709 41.1786 520.347 41.3949C519.985 41.6069 519.585 41.7129 519.148 41.7129ZM519.148 40.673C519.391 40.673 519.614 40.6111 519.817 40.4875C520.024 40.3639 520.188 40.2005 520.307 39.9973C520.431 39.7942 520.493 39.5712 520.493 39.3284C520.493 39.0855 520.431 38.8625 520.307 38.6594C520.188 38.4518 520.024 38.2884 519.817 38.1692C519.614 38.0456 519.391 37.9838 519.148 37.9838C518.905 37.9838 518.682 38.0456 518.479 38.1692C518.276 38.2884 518.112 38.4518 517.989 38.6594C517.865 38.8625 517.803 39.0855 517.803 39.3284C517.803 39.5712 517.865 39.7942 517.989 39.9973C518.112 40.2005 518.276 40.3639 518.479 40.4875C518.682 40.6111 518.905 40.673 519.148 40.673ZM513.571 36.5464C513.134 36.5464 512.734 36.4405 512.372 36.2285C512.01 36.0121 511.721 35.7251 511.504 35.3674C511.292 35.0053 511.186 34.6035 511.186 34.1619C511.186 33.7292 511.297 33.3318 511.518 32.9697C511.738 32.6076 512.03 32.3183 512.392 32.102C512.754 31.8856 513.147 31.7774 513.571 31.7774C514.008 31.7774 514.405 31.8856 514.763 32.102C515.125 32.3139 515.414 32.6009 515.631 32.963C515.847 33.3207 515.955 33.7203 515.955 34.1619C515.955 34.6035 515.847 35.0053 515.631 35.3674C515.414 35.7251 515.125 36.0121 514.763 36.2285C514.405 36.4405 514.008 36.5464 513.571 36.5464ZM513.571 35.5065C513.814 35.5065 514.037 35.4447 514.24 35.3211C514.447 35.1974 514.611 35.034 514.73 34.8309C514.854 34.6278 514.915 34.4048 514.915 34.1619C514.915 33.9191 514.854 33.6961 514.73 33.4929C514.611 33.2854 514.447 33.122 514.24 33.0028C514.037 32.8791 513.814 32.8173 513.571 32.8173C513.328 32.8173 513.105 32.8791 512.902 33.0028C512.699 33.122 512.535 33.2854 512.412 33.4929C512.288 33.6961 512.226 33.9191 512.226 34.1619C512.226 34.4048 512.288 34.6278 512.412 34.8309C512.535 35.034 512.699 35.1974 512.902 35.3211C513.105 35.4447 513.328 35.5065 513.571 35.5065Z" fill="#013220"/>
<path d="M503.237 66.2603L503.242 65.5503L506.692 62.4345C506.989 62.166 507.185 61.9117 507.28 61.6715C507.379 61.4277 507.428 61.1734 507.428 60.9084C507.428 60.594 507.354 60.3096 507.206 60.0553C507.057 59.801 506.858 59.5996 506.607 59.4512C506.356 59.2993 506.075 59.2234 505.765 59.2234C505.44 59.2234 505.15 59.3011 504.895 59.4565C504.641 59.612 504.44 59.8168 504.291 60.0712C504.147 60.3255 504.076 60.6029 504.079 60.9031H503.285C503.285 60.4404 503.394 60.0253 503.613 59.6579C503.832 59.2905 504.129 59.0026 504.503 58.7942C504.878 58.5822 505.302 58.4762 505.775 58.4762C506.238 58.4762 506.653 58.5857 507.02 58.8048C507.391 59.0202 507.683 59.3135 507.895 59.6844C508.11 60.0518 508.218 60.4615 508.218 60.9137C508.218 61.2317 508.179 61.5125 508.101 61.7563C508.027 61.9965 507.909 62.2208 507.746 62.4292C507.587 62.6341 507.384 62.8461 507.137 63.0651L504.074 65.8311L503.952 65.5132H508.218V66.2603H503.237ZM511.983 66.4246C511.514 66.4246 511.09 66.3151 510.712 66.0961C510.337 65.877 510.041 65.5803 509.821 65.2058C509.602 64.8279 509.493 64.4039 509.493 63.9341V60.9667C509.493 60.4969 509.602 60.0747 509.821 59.7003C510.041 59.3223 510.337 59.0238 510.712 58.8048C511.09 58.5857 511.514 58.4762 511.983 58.4762C512.453 58.4762 512.875 58.5857 513.25 58.8048C513.628 59.0238 513.926 59.3223 514.145 59.7003C514.364 60.0747 514.474 60.4969 514.474 60.9667V63.9341C514.474 64.4039 514.364 64.8279 514.145 65.2058C513.926 65.5803 513.628 65.877 513.25 66.0961C512.875 66.3151 512.453 66.4246 511.983 66.4246ZM511.983 65.6721C512.298 65.6721 512.584 65.5962 512.842 65.4443C513.1 65.2889 513.305 65.0822 513.457 64.8243C513.608 64.5664 513.684 64.2821 513.684 63.9712V60.9296C513.684 60.6152 513.608 60.3291 513.457 60.0712C513.305 59.8133 513.1 59.6084 512.842 59.4565C512.584 59.3011 512.298 59.2234 511.983 59.2234C511.669 59.2234 511.383 59.3011 511.125 59.4565C510.867 59.6084 510.662 59.8133 510.51 60.0712C510.358 60.3291 510.282 60.6152 510.282 60.9296V63.9712C510.282 64.2821 510.358 64.5664 510.51 64.8243C510.662 65.0822 510.867 65.2889 511.125 65.4443C511.383 65.5962 511.669 65.6721 511.983 65.6721ZM515.749 66.2603L515.755 65.5503L519.204 62.4345C519.501 62.166 519.697 61.9117 519.792 61.6715C519.891 61.4277 519.941 61.1734 519.941 60.9084C519.941 60.594 519.867 60.3096 519.718 60.0553C519.57 59.801 519.37 59.5996 519.12 59.4512C518.869 59.2993 518.588 59.2234 518.277 59.2234C517.952 59.2234 517.662 59.3011 517.408 59.4565C517.154 59.612 516.952 59.8168 516.804 60.0712C516.659 60.3255 516.588 60.6029 516.592 60.9031H515.797C515.797 60.4404 515.907 60.0253 516.126 59.6579C516.345 59.2905 516.641 59.0026 517.016 58.7942C517.39 58.5822 517.814 58.4762 518.288 58.4762C518.75 58.4762 519.165 58.5857 519.533 58.8048C519.904 59.0202 520.195 59.3135 520.407 59.6844C520.623 60.0518 520.73 60.4615 520.73 60.9137C520.73 61.2317 520.692 61.5125 520.614 61.7563C520.54 61.9965 520.421 62.2208 520.259 62.4292C520.1 62.6341 519.897 62.8461 519.649 63.0651L516.587 65.8311L516.465 65.5132H520.73V66.2603H515.749ZM525.158 66.2656V64.7872H521.586V64.0454L524.141 58.6352H525.015L522.461 64.0454H525.158V61.8198H525.942V64.0454H526.774V64.7872H525.942V66.2656H525.158Z" fill="#8D8E90"/>
<path d="M560.713 160.853L560.72 159.793L564.952 155.984C565.306 155.666 565.542 155.366 565.661 155.084C565.785 154.797 565.846 154.503 565.846 154.203C565.846 153.836 565.763 153.505 565.595 153.209C565.427 152.913 565.197 152.679 564.906 152.507C564.619 152.335 564.292 152.249 563.926 152.249C563.546 152.249 563.208 152.339 562.912 152.52C562.616 152.697 562.382 152.933 562.21 153.229C562.042 153.525 561.961 153.847 561.965 154.196H560.76C560.76 153.595 560.899 153.066 561.177 152.606C561.455 152.143 561.833 151.781 562.309 151.52C562.791 151.255 563.336 151.123 563.945 151.123C564.537 151.123 565.067 151.26 565.535 151.533C566.003 151.803 566.372 152.171 566.641 152.639C566.915 153.103 567.052 153.629 567.052 154.216C567.052 154.631 566.999 154.991 566.893 155.296C566.791 155.6 566.632 155.883 566.416 156.143C566.2 156.399 565.928 156.673 565.601 156.965L562.084 160.124L561.932 159.727H567.052V160.853H560.713ZM571.856 161.058C571.238 161.058 570.686 160.919 570.2 160.641C569.719 160.358 569.337 159.976 569.054 159.495C568.776 159.009 568.637 158.457 568.637 157.839V154.342C568.637 153.724 568.776 153.172 569.054 152.686C569.337 152.2 569.719 151.818 570.2 151.54C570.686 151.262 571.238 151.123 571.856 151.123C572.474 151.123 573.026 151.262 573.512 151.54C573.997 151.818 574.379 152.2 574.658 152.686C574.936 153.172 575.075 153.724 575.075 154.342V157.839C575.075 158.457 574.936 159.009 574.658 159.495C574.379 159.976 573.997 160.358 573.512 160.641C573.026 160.919 572.474 161.058 571.856 161.058ZM571.856 159.925C572.231 159.925 572.571 159.835 572.876 159.654C573.18 159.473 573.423 159.23 573.604 158.925C573.785 158.616 573.876 158.276 573.876 157.905V154.269C573.876 153.894 573.785 153.553 573.604 153.249C573.423 152.944 573.18 152.701 572.876 152.52C572.571 152.339 572.231 152.249 571.856 152.249C571.485 152.249 571.145 152.339 570.836 152.52C570.531 152.701 570.288 152.944 570.107 153.249C569.926 153.553 569.836 153.894 569.836 154.269V157.905C569.836 158.276 569.926 158.616 570.107 158.925C570.288 159.23 570.531 159.473 570.836 159.654C571.145 159.835 571.485 159.925 571.856 159.925ZM577.989 160.859L577.194 160.065L585.951 151.321L586.745 152.116L577.989 160.859ZM584.758 161.058C584.321 161.058 583.922 160.952 583.559 160.74C583.202 160.524 582.915 160.237 582.698 159.879C582.482 159.517 582.374 159.115 582.374 158.674C582.374 158.241 582.484 157.843 582.705 157.481C582.926 157.119 583.217 156.83 583.579 156.614C583.941 156.397 584.334 156.289 584.758 156.289C585.195 156.289 585.595 156.397 585.957 156.614C586.319 156.826 586.606 157.113 586.818 157.475C587.035 157.832 587.143 158.232 587.143 158.674C587.143 159.115 587.035 159.517 586.818 159.879C586.606 160.237 586.319 160.524 585.957 160.74C585.595 160.952 585.195 161.058 584.758 161.058ZM584.758 160.018C585.001 160.018 585.224 159.956 585.427 159.833C585.635 159.709 585.798 159.546 585.917 159.343C586.041 159.139 586.103 158.916 586.103 158.674C586.103 158.431 586.041 158.208 585.917 158.005C585.798 157.797 585.635 157.634 585.427 157.514C585.224 157.391 585.001 157.329 584.758 157.329C584.515 157.329 584.292 157.391 584.089 157.514C583.886 157.634 583.723 157.797 583.599 158.005C583.476 158.208 583.414 158.431 583.414 158.674C583.414 158.916 583.476 159.139 583.599 159.343C583.723 159.546 583.886 159.709 584.089 159.833C584.292 159.956 584.515 160.018 584.758 160.018ZM579.181 155.892C578.744 155.892 578.344 155.786 577.982 155.574C577.62 155.357 577.331 155.07 577.115 154.713C576.903 154.351 576.797 153.949 576.797 153.507C576.797 153.074 576.907 152.677 577.128 152.315C577.349 151.953 577.64 151.664 578.002 151.447C578.364 151.231 578.757 151.123 579.181 151.123C579.618 151.123 580.016 151.231 580.373 151.447C580.736 151.659 581.025 151.946 581.241 152.308C581.458 152.666 581.566 153.066 581.566 153.507C581.566 153.949 581.458 154.351 581.241 154.713C581.025 155.07 580.736 155.357 580.373 155.574C580.016 155.786 579.618 155.892 579.181 155.892ZM579.181 154.852C579.424 154.852 579.647 154.79 579.85 154.666C580.058 154.543 580.221 154.379 580.34 154.176C580.464 153.973 580.526 153.75 580.526 153.507C580.526 153.264 580.464 153.041 580.34 152.838C580.221 152.631 580.058 152.467 579.85 152.348C579.647 152.224 579.424 152.163 579.181 152.163C578.938 152.163 578.715 152.224 578.512 152.348C578.309 152.467 578.146 152.631 578.022 152.838C577.898 153.041 577.837 153.264 577.837 153.507C577.837 153.75 577.898 153.973 578.022 154.176C578.146 154.379 578.309 154.543 578.512 154.666C578.715 154.79 578.938 154.852 579.181 154.852Z" fill="#4574D1"/>
<path d="M560.581 185.606L560.586 184.896L564.036 181.78C564.332 181.512 564.528 181.257 564.624 181.017C564.723 180.773 564.772 180.519 564.772 180.254C564.772 179.94 564.698 179.655 564.55 179.401C564.401 179.147 564.202 178.945 563.951 178.797C563.7 178.645 563.419 178.569 563.108 178.569C562.783 178.569 562.494 178.647 562.239 178.802C561.985 178.958 561.784 179.163 561.635 179.417C561.49 179.671 561.42 179.949 561.423 180.249H560.628C560.628 179.786 560.738 179.371 560.957 179.004C561.176 178.636 561.473 178.348 561.847 178.14C562.222 177.928 562.645 177.822 563.119 177.822C563.582 177.822 563.997 177.931 564.364 178.15C564.735 178.366 565.026 178.659 565.238 179.03C565.454 179.397 565.562 179.807 565.562 180.259C565.562 180.577 565.523 180.858 565.445 181.102C565.371 181.342 565.253 181.566 565.09 181.775C564.931 181.98 564.728 182.192 564.481 182.411L561.418 185.177L561.296 184.859H565.562V185.606H560.581ZM569.327 185.77C568.857 185.77 568.433 185.661 568.055 185.442C567.681 185.223 567.384 184.926 567.165 184.552C566.946 184.174 566.837 183.75 566.837 183.28V180.312C566.837 179.843 566.946 179.42 567.165 179.046C567.384 178.668 567.681 178.369 568.055 178.15C568.433 177.931 568.857 177.822 569.327 177.822C569.797 177.822 570.219 177.931 570.594 178.15C570.972 178.369 571.27 178.668 571.489 179.046C571.708 179.42 571.818 179.843 571.818 180.312V183.28C571.818 183.75 571.708 184.174 571.489 184.552C571.27 184.926 570.972 185.223 570.594 185.442C570.219 185.661 569.797 185.77 569.327 185.77ZM569.327 185.018C569.642 185.018 569.928 184.942 570.186 184.79C570.443 184.635 570.648 184.428 570.8 184.17C570.952 183.912 571.028 183.628 571.028 183.317V180.275C571.028 179.961 570.952 179.675 570.8 179.417C570.648 179.159 570.443 178.954 570.186 178.802C569.928 178.647 569.642 178.569 569.327 178.569C569.013 178.569 568.727 178.647 568.469 178.802C568.211 178.954 568.006 179.159 567.854 179.417C567.702 179.675 567.626 179.961 567.626 180.275V183.317C567.626 183.628 567.702 183.912 567.854 184.17C568.006 184.428 568.211 184.635 568.469 184.79C568.727 184.942 569.013 185.018 569.327 185.018ZM573.093 185.606L573.098 184.896L576.548 181.78C576.845 181.512 577.041 181.257 577.136 181.017C577.235 180.773 577.285 180.519 577.285 180.254C577.285 179.94 577.21 179.655 577.062 179.401C576.914 179.147 576.714 178.945 576.463 178.797C576.212 178.645 575.932 178.569 575.621 178.569C575.296 178.569 575.006 178.647 574.752 178.802C574.497 178.958 574.296 179.163 574.148 179.417C574.003 179.671 573.932 179.949 573.936 180.249H573.141C573.141 179.786 573.25 179.371 573.469 179.004C573.688 178.636 573.985 178.348 574.36 178.14C574.734 177.928 575.158 177.822 575.631 177.822C576.094 177.822 576.509 177.931 576.877 178.15C577.247 178.366 577.539 178.659 577.751 179.03C577.966 179.397 578.074 179.807 578.074 180.259C578.074 180.577 578.035 180.858 577.958 181.102C577.883 181.342 577.765 181.566 577.603 181.775C577.444 181.98 577.24 182.192 576.993 182.411L573.93 185.177L573.808 184.859H578.074V185.606H573.093ZM582.502 185.611V184.133H578.93V183.391L581.484 177.981H582.359L579.805 183.391H582.502V181.166H583.286V183.391H584.118V184.133H583.286V185.611H582.502Z" fill="#8D8E90"/>
<path d="M567.421 279.861C566.948 279.861 566.509 279.775 566.102 279.602C565.696 279.426 565.345 279.179 565.049 278.861C564.758 278.538 564.544 278.156 564.407 277.715L565.539 277.39C565.685 277.832 565.928 278.167 566.268 278.397C566.608 278.627 566.99 278.739 567.414 278.735C567.803 278.726 568.138 278.638 568.421 278.47C568.708 278.298 568.929 278.064 569.083 277.768C569.242 277.472 569.322 277.13 569.322 276.741C569.322 276.149 569.145 275.67 568.792 275.304C568.438 274.933 567.975 274.747 567.401 274.747C567.242 274.747 567.074 274.769 566.897 274.814C566.725 274.858 566.564 274.92 566.414 274.999L565.844 274.065L569.381 270.866L569.534 271.263H564.784V270.137H570.408V271.27L567.394 274.158L567.381 273.741C568.012 273.696 568.564 273.8 569.037 274.052C569.509 274.304 569.876 274.663 570.136 275.131C570.401 275.6 570.534 276.136 570.534 276.741C570.534 277.35 570.397 277.889 570.123 278.357C569.849 278.825 569.478 279.194 569.01 279.463C568.542 279.728 568.012 279.861 567.421 279.861ZM575.475 279.874C574.857 279.874 574.305 279.735 573.819 279.457C573.338 279.174 572.956 278.792 572.673 278.311C572.395 277.825 572.256 277.273 572.256 276.655V273.158C572.256 272.539 572.395 271.987 572.673 271.502C572.956 271.016 573.338 270.634 573.819 270.356C574.305 270.078 574.857 269.939 575.475 269.939C576.093 269.939 576.645 270.078 577.131 270.356C577.617 270.634 577.999 271.016 578.277 271.502C578.555 271.987 578.694 272.539 578.694 273.158V276.655C578.694 277.273 578.555 277.825 578.277 278.311C577.999 278.792 577.617 279.174 577.131 279.457C576.645 279.735 576.093 279.874 575.475 279.874ZM575.475 278.741C575.85 278.741 576.19 278.651 576.495 278.47C576.8 278.289 577.043 278.046 577.224 277.741C577.405 277.432 577.495 277.092 577.495 276.721V273.085C577.495 272.709 577.405 272.369 577.224 272.065C577.043 271.76 576.8 271.517 576.495 271.336C576.19 271.155 575.85 271.065 575.475 271.065C575.104 271.065 574.764 271.155 574.455 271.336C574.15 271.517 573.907 271.76 573.726 272.065C573.545 272.369 573.455 272.709 573.455 273.085V276.721C573.455 277.092 573.545 277.432 573.726 277.741C573.907 278.046 574.15 278.289 574.455 278.47C574.764 278.651 575.104 278.741 575.475 278.741ZM581.608 279.675L580.813 278.88L589.57 270.137L590.365 270.932L581.608 279.675ZM588.377 279.874C587.94 279.874 587.541 279.768 587.179 279.556C586.821 279.34 586.534 279.053 586.318 278.695C586.101 278.333 585.993 277.931 585.993 277.489C585.993 277.057 586.103 276.659 586.324 276.297C586.545 275.935 586.836 275.646 587.198 275.43C587.561 275.213 587.954 275.105 588.377 275.105C588.815 275.105 589.214 275.213 589.576 275.43C589.938 275.641 590.225 275.929 590.437 276.291C590.654 276.648 590.762 277.048 590.762 277.489C590.762 277.931 590.654 278.333 590.437 278.695C590.225 279.053 589.938 279.34 589.576 279.556C589.214 279.768 588.815 279.874 588.377 279.874ZM588.377 278.834C588.62 278.834 588.843 278.772 589.046 278.649C589.254 278.525 589.417 278.362 589.537 278.158C589.66 277.955 589.722 277.732 589.722 277.489C589.722 277.247 589.66 277.024 589.537 276.821C589.417 276.613 589.254 276.45 589.046 276.33C588.843 276.207 588.62 276.145 588.377 276.145C588.135 276.145 587.912 276.207 587.709 276.33C587.505 276.45 587.342 276.613 587.218 276.821C587.095 277.024 587.033 277.247 587.033 277.489C587.033 277.732 587.095 277.955 587.218 278.158C587.342 278.362 587.505 278.525 587.709 278.649C587.912 278.772 588.135 278.834 588.377 278.834ZM582.8 274.708C582.363 274.708 581.964 274.602 581.602 274.39C581.239 274.173 580.95 273.886 580.734 273.529C580.522 273.166 580.416 272.765 580.416 272.323C580.416 271.89 580.526 271.493 580.747 271.131C580.968 270.769 581.259 270.479 581.621 270.263C581.983 270.047 582.376 269.939 582.8 269.939C583.238 269.939 583.635 270.047 583.993 270.263C584.355 270.475 584.644 270.762 584.86 271.124C585.077 271.482 585.185 271.881 585.185 272.323C585.185 272.765 585.077 273.166 584.86 273.529C584.644 273.886 584.355 274.173 583.993 274.39C583.635 274.602 583.238 274.708 582.8 274.708ZM582.8 273.668C583.043 273.668 583.266 273.606 583.469 273.482C583.677 273.359 583.84 273.195 583.96 272.992C584.083 272.789 584.145 272.566 584.145 272.323C584.145 272.08 584.083 271.857 583.96 271.654C583.84 271.447 583.677 271.283 583.469 271.164C583.266 271.04 583.043 270.978 582.8 270.978C582.558 270.978 582.335 271.04 582.131 271.164C581.928 271.283 581.765 271.447 581.641 271.654C581.518 271.857 581.456 272.08 581.456 272.323C581.456 272.566 581.518 272.789 581.641 272.992C581.765 273.195 581.928 273.359 582.131 273.482C582.335 273.606 582.558 273.668 582.8 273.668Z" fill="#1A3E85"/>
<path d="M564.407 304.421L564.412 303.711L567.862 300.596C568.158 300.327 568.355 300.073 568.45 299.833C568.549 299.589 568.598 299.335 568.598 299.07C568.598 298.755 568.524 298.471 568.376 298.216C568.227 297.962 568.028 297.761 567.777 297.612C567.526 297.46 567.245 297.385 566.934 297.385C566.609 297.385 566.32 297.462 566.065 297.618C565.811 297.773 565.61 297.978 565.461 298.232C565.316 298.487 565.246 298.764 565.249 299.064H564.455C564.455 298.601 564.564 298.186 564.783 297.819C565.002 297.452 565.299 297.164 565.673 296.955C566.048 296.743 566.472 296.637 566.945 296.637C567.408 296.637 567.823 296.747 568.19 296.966C568.561 297.181 568.853 297.475 569.065 297.846C569.28 298.213 569.388 298.623 569.388 299.075C569.388 299.393 569.349 299.674 569.271 299.917C569.197 300.158 569.079 300.382 568.916 300.59C568.757 300.795 568.554 301.007 568.307 301.226L565.244 303.992L565.122 303.674H569.388V304.421H564.407ZM573.153 304.586C572.684 304.586 572.26 304.476 571.882 304.257C571.507 304.038 571.21 303.741 570.991 303.367C570.772 302.989 570.663 302.565 570.663 302.095V299.128C570.663 298.658 570.772 298.236 570.991 297.861C571.21 297.483 571.507 297.185 571.882 296.966C572.26 296.747 572.684 296.637 573.153 296.637C573.623 296.637 574.045 296.747 574.42 296.966C574.798 297.185 575.096 297.483 575.315 297.861C575.534 298.236 575.644 298.658 575.644 299.128V302.095C575.644 302.565 575.534 302.989 575.315 303.367C575.096 303.741 574.798 304.038 574.42 304.257C574.045 304.476 573.623 304.586 573.153 304.586ZM573.153 303.833C573.468 303.833 573.754 303.757 574.012 303.605C574.27 303.45 574.475 303.243 574.626 302.985C574.778 302.728 574.854 302.443 574.854 302.132V299.091C574.854 298.776 574.778 298.49 574.626 298.232C574.475 297.974 574.27 297.77 574.012 297.618C573.754 297.462 573.468 297.385 573.153 297.385C572.839 297.385 572.553 297.462 572.295 297.618C572.037 297.77 571.832 297.974 571.68 298.232C571.528 298.49 571.452 298.776 571.452 299.091V302.132C571.452 302.443 571.528 302.728 571.68 302.985C571.832 303.243 572.037 303.45 572.295 303.605C572.553 303.757 572.839 303.833 573.153 303.833ZM576.919 304.421L576.925 303.711L580.374 300.596C580.671 300.327 580.867 300.073 580.962 299.833C581.061 299.589 581.111 299.335 581.111 299.07C581.111 298.755 581.037 298.471 580.888 298.216C580.74 297.962 580.54 297.761 580.289 297.612C580.039 297.46 579.758 297.385 579.447 297.385C579.122 297.385 578.832 297.462 578.578 297.618C578.324 297.773 578.122 297.978 577.974 298.232C577.829 298.487 577.758 298.764 577.762 299.064H576.967C576.967 298.601 577.077 298.186 577.296 297.819C577.515 297.452 577.811 297.164 578.186 296.955C578.56 296.743 578.984 296.637 579.457 296.637C579.92 296.637 580.335 296.747 580.703 296.966C581.074 297.181 581.365 297.475 581.577 297.846C581.793 298.213 581.9 298.623 581.9 299.075C581.9 299.393 581.861 299.674 581.784 299.917C581.71 300.158 581.591 300.382 581.429 300.59C581.27 300.795 581.067 301.007 580.819 301.226L577.757 303.992L577.635 303.674H581.9V304.421H576.919ZM586.328 304.427V302.948H582.756V302.207L585.31 296.796H586.185L583.631 302.207H586.328V299.981H587.112V302.207H587.944V302.948H587.112V304.427H586.328Z" fill="#8D8E90"/>
<path d="M489.598 393.971V392.216H485.213V391.097L488.359 384.433H489.697L486.551 391.097H489.598V388.414H490.79V391.097H491.784V392.216H490.79V393.971H489.598ZM496.589 394.17C495.97 394.17 495.418 394.031 494.933 393.753C494.451 393.47 494.069 393.088 493.787 392.607C493.509 392.121 493.37 391.569 493.37 390.951V387.454C493.37 386.835 493.509 386.283 493.787 385.798C494.069 385.312 494.451 384.93 494.933 384.652C495.418 384.374 495.97 384.234 496.589 384.234C497.207 384.234 497.759 384.374 498.245 384.652C498.73 384.93 499.112 385.312 499.39 385.798C499.669 386.283 499.808 386.835 499.808 387.454V390.951C499.808 391.569 499.669 392.121 499.39 392.607C499.112 393.088 498.73 393.47 498.245 393.753C497.759 394.031 497.207 394.17 496.589 394.17ZM496.589 393.037C496.964 393.037 497.304 392.947 497.609 392.766C497.913 392.585 498.156 392.342 498.337 392.037C498.518 391.728 498.609 391.388 498.609 391.017V387.381C498.609 387.005 498.518 386.665 498.337 386.361C498.156 386.056 497.913 385.813 497.609 385.632C497.304 385.451 496.964 385.36 496.589 385.36C496.218 385.36 495.878 385.451 495.569 385.632C495.264 385.813 495.021 386.056 494.84 386.361C494.659 386.665 494.568 387.005 494.568 387.381V391.017C494.568 391.388 494.659 391.728 494.84 392.037C495.021 392.342 495.264 392.585 495.569 392.766C495.878 392.947 496.218 393.037 496.589 393.037ZM502.722 393.971L501.927 393.176L510.683 384.433L511.478 385.228L502.722 393.971ZM509.491 394.17C509.054 394.17 508.654 394.064 508.292 393.852C507.935 393.636 507.648 393.349 507.431 392.991C507.215 392.629 507.107 392.227 507.107 391.785C507.107 391.353 507.217 390.955 507.438 390.593C507.659 390.231 507.95 389.942 508.312 389.725C508.674 389.509 509.067 389.401 509.491 389.401C509.928 389.401 510.328 389.509 510.69 389.725C511.052 389.937 511.339 390.224 511.551 390.587C511.767 390.944 511.876 391.344 511.876 391.785C511.876 392.227 511.767 392.629 511.551 392.991C511.339 393.349 511.052 393.636 510.69 393.852C510.328 394.064 509.928 394.17 509.491 394.17ZM509.491 393.13C509.734 393.13 509.957 393.068 510.16 392.945C510.368 392.821 510.531 392.658 510.65 392.454C510.774 392.251 510.836 392.028 510.836 391.785C510.836 391.543 510.774 391.32 510.65 391.116C510.531 390.909 510.368 390.745 510.16 390.626C509.957 390.503 509.734 390.441 509.491 390.441C509.248 390.441 509.025 390.503 508.822 390.626C508.619 390.745 508.456 390.909 508.332 391.116C508.208 391.32 508.147 391.543 508.147 391.785C508.147 392.028 508.208 392.251 508.332 392.454C508.456 392.658 508.619 392.821 508.822 392.945C509.025 393.068 509.248 393.13 509.491 393.13ZM503.914 389.003C503.477 389.003 503.077 388.897 502.715 388.686C502.353 388.469 502.064 388.182 501.847 387.824C501.636 387.462 501.53 387.061 501.53 386.619C501.53 386.186 501.64 385.789 501.861 385.427C502.082 385.065 502.373 384.775 502.735 384.559C503.097 384.343 503.49 384.234 503.914 384.234C504.351 384.234 504.749 384.343 505.106 384.559C505.468 384.771 505.758 385.058 505.974 385.42C506.19 385.778 506.299 386.177 506.299 386.619C506.299 387.061 506.19 387.462 505.974 387.824C505.758 388.182 505.468 388.469 505.106 388.686C504.749 388.897 504.351 389.003 503.914 389.003ZM503.914 387.964C504.157 387.964 504.38 387.902 504.583 387.778C504.791 387.654 504.954 387.491 505.073 387.288C505.197 387.085 505.259 386.862 505.259 386.619C505.259 386.376 505.197 386.153 505.073 385.95C504.954 385.742 504.791 385.579 504.583 385.46C504.38 385.336 504.157 385.274 503.914 385.274C503.671 385.274 503.448 385.336 503.245 385.46C503.042 385.579 502.879 385.742 502.755 385.95C502.631 386.153 502.569 386.376 502.569 386.619C502.569 386.862 502.631 387.085 502.755 387.288C502.879 387.491 503.042 387.654 503.245 387.778C503.448 387.902 503.671 387.964 503.914 387.964Z" fill="#B98639"/>
<path d="M485.081 418.717L485.086 418.007L488.536 414.892C488.832 414.623 489.028 414.369 489.124 414.128C489.223 413.885 489.272 413.63 489.272 413.365C489.272 413.051 489.198 412.767 489.05 412.512C488.901 412.258 488.702 412.057 488.451 411.908C488.2 411.756 487.919 411.68 487.608 411.68C487.283 411.68 486.994 411.758 486.739 411.914C486.485 412.069 486.284 412.274 486.135 412.528C485.99 412.783 485.92 413.06 485.923 413.36H485.128C485.128 412.897 485.238 412.482 485.457 412.115C485.676 411.748 485.973 411.46 486.347 411.251C486.722 411.039 487.145 410.933 487.619 410.933C488.082 410.933 488.497 411.043 488.864 411.262C489.235 411.477 489.526 411.77 489.738 412.141C489.954 412.509 490.062 412.919 490.062 413.371C490.062 413.689 490.023 413.97 489.945 414.213C489.871 414.453 489.753 414.678 489.59 414.886C489.431 415.091 489.228 415.303 488.981 415.522L485.918 418.288L485.796 417.97H490.062V418.717H485.081ZM493.827 418.882C493.357 418.882 492.933 418.772 492.555 418.553C492.181 418.334 491.884 418.037 491.665 417.663C491.446 417.285 491.337 416.861 491.337 416.391V413.424C491.337 412.954 491.446 412.532 491.665 412.157C491.884 411.779 492.181 411.481 492.555 411.262C492.933 411.043 493.357 410.933 493.827 410.933C494.297 410.933 494.719 411.043 495.094 411.262C495.472 411.481 495.77 411.779 495.989 412.157C496.208 412.532 496.318 412.954 496.318 413.424V416.391C496.318 416.861 496.208 417.285 495.989 417.663C495.77 418.037 495.472 418.334 495.094 418.553C494.719 418.772 494.297 418.882 493.827 418.882ZM493.827 418.129C494.142 418.129 494.428 418.053 494.686 417.901C494.943 417.746 495.148 417.539 495.3 417.281C495.452 417.023 495.528 416.739 495.528 416.428V413.387C495.528 413.072 495.452 412.786 495.3 412.528C495.148 412.27 494.943 412.065 494.686 411.914C494.428 411.758 494.142 411.68 493.827 411.68C493.513 411.68 493.227 411.758 492.969 411.914C492.711 412.065 492.506 412.27 492.354 412.528C492.202 412.786 492.126 413.072 492.126 413.387V416.428C492.126 416.739 492.202 417.023 492.354 417.281C492.506 417.539 492.711 417.746 492.969 417.901C493.227 418.053 493.513 418.129 493.827 418.129ZM497.593 418.717L497.598 418.007L501.048 414.892C501.345 414.623 501.541 414.369 501.636 414.128C501.735 413.885 501.785 413.63 501.785 413.365C501.785 413.051 501.71 412.767 501.562 412.512C501.414 412.258 501.214 412.057 500.963 411.908C500.712 411.756 500.432 411.68 500.121 411.68C499.796 411.68 499.506 411.758 499.252 411.914C498.997 412.069 498.796 412.274 498.648 412.528C498.503 412.783 498.432 413.06 498.436 413.36H497.641C497.641 412.897 497.75 412.482 497.969 412.115C498.188 411.748 498.485 411.46 498.86 411.251C499.234 411.039 499.658 410.933 500.131 410.933C500.594 410.933 501.009 411.043 501.377 411.262C501.747 411.477 502.039 411.77 502.251 412.141C502.466 412.509 502.574 412.919 502.574 413.371C502.574 413.689 502.535 413.97 502.458 414.213C502.383 414.453 502.265 414.678 502.103 414.886C501.944 415.091 501.74 415.303 501.493 415.522L498.43 418.288L498.308 417.97H502.574V418.717H497.593ZM507.002 418.723V417.244H503.43V416.502L505.984 411.092H506.859L504.305 416.502H507.002V414.277H507.786V416.502H508.618V417.244H507.786V418.723H507.002Z" fill="#8D8E90"/>
</g>
<defs>
<clipPath id="clip0_1699_38225">
<rect width="619" height="424" fill="white"/>
</clipPath>
</defs>
</svg>
