<svg width="24" height="24" viewBox="0 0 24 24" fill="none" xmlns="http://www.w3.org/2000/svg">
<path d="M17.8334 5.41636L8.28751 5.41636C8.08848 5.41636 7.89761 5.49542 7.75688 5.63616C7.61615 5.77689 7.53709 5.96776 7.53709 6.16678C7.53709 6.3658 7.61615 6.55668 7.75688 6.69741C7.89761 6.83814 8.08848 6.9172 8.28751 6.9172L16.023 6.91654L5.63586 17.3037C5.49521 17.4444 5.41619 17.6351 5.41619 17.834C5.41619 18.033 5.49521 18.2237 5.63586 18.3644C5.77651 18.505 5.96728 18.584 6.16619 18.584C6.3651 18.584 6.55587 18.505 6.69652 18.3644L17.0837 7.9772L17.083 15.7127C17.083 15.9117 17.1621 16.1026 17.3028 16.2433C17.4436 16.3841 17.6344 16.4631 17.8334 16.4631C18.0325 16.4631 18.2233 16.3841 18.3641 16.2433C18.5048 16.1026 18.5839 15.9117 18.5839 15.7127L18.5839 6.16678C18.5839 6.06822 18.5645 5.97061 18.5269 5.87954C18.4892 5.78847 18.4339 5.70573 18.3642 5.63603C18.2945 5.56634 18.2118 5.51107 18.1207 5.47337C18.0296 5.43568 17.932 5.41631 17.8334 5.41636Z" fill="#10172A"/>
</svg>
