<svg width="34" height="37" viewBox="0 0 34 37" fill="none" xmlns="http://www.w3.org/2000/svg">
<path d="M0 15.3076C0 6.85345 6.85345 0 15.3076 0V21.1456C15.3076 29.5997 8.45416 36.4532 0 36.4532V15.3076Z" fill="#1F4DA8"/>
<path d="M17.5293 8C17.5293 3.58172 21.111 0 25.5293 0C29.9476 0 33.5293 3.58172 33.5293 8C33.5293 12.4183 29.9476 16 25.5293 16C21.111 16 17.5293 12.4183 17.5293 8Z" fill="#D79F4B"/>
<path d="M17.5293 27.3372C17.5293 22.9189 21.111 19.3372 25.5293 19.3372C29.9476 19.3372 33.5293 22.9189 33.5293 27.3372C33.5293 31.7554 29.9476 35.3372 25.5293 35.3372C21.111 35.3372 17.5293 31.7554 17.5293 27.3372Z" fill="#D79F4B"/>
</svg>
