<svg width="19" height="15" viewBox="0 0 19 15" fill="none" xmlns="http://www.w3.org/2000/svg">
<path d="M12.8786 0.0969917V0.09375H13.7226L14.031 0.155342C14.2366 0.195328 14.4233 0.24773 14.591 0.312564C14.7587 0.377397 14.921 0.453042 15.0779 0.539481C15.2348 0.625921 15.3771 0.713997 15.5048 0.803678C15.6314 0.89229 15.745 0.986298 15.8456 1.0857C15.9452 1.1862 16.1004 1.21213 16.3114 1.1635C16.5224 1.11488 16.7497 1.04734 16.9931 0.9609C17.2366 0.87446 17.4774 0.77721 17.7154 0.669149C17.9535 0.561087 18.0985 0.492477 18.1504 0.463302C18.2013 0.433057 18.2283 0.416848 18.2316 0.414676L18.2348 0.409814L18.251 0.40171L18.2673 0.393606L18.2835 0.385501L18.2997 0.377397L18.303 0.372535L18.3078 0.369293L18.3127 0.366051L18.3159 0.361189L18.3322 0.356326L18.3484 0.353085L18.3452 0.377397L18.3403 0.40171L18.3322 0.426022L18.3241 0.450335L18.3159 0.466543L18.3078 0.482752L18.2997 0.507064C18.2943 0.523273 18.2889 0.544879 18.2835 0.571898C18.2781 0.598917 18.2267 0.706963 18.1293 0.896066C18.0319 1.08517 17.9102 1.27696 17.7641 1.47146C17.618 1.66597 17.4871 1.81291 17.3713 1.91233C17.2545 2.01283 17.1771 2.08306 17.1392 2.12304C17.1013 2.1641 17.0554 2.20191 17.0012 2.2365L16.9201 2.28999L16.9039 2.29809L16.8876 2.3062L16.8844 2.31106L16.8795 2.3143L16.8746 2.31754L16.8714 2.32241L16.8552 2.33051L16.8389 2.33861L16.8357 2.34348L16.8308 2.34672L16.826 2.34996L16.8227 2.35482L16.8195 2.35969L16.8146 2.36293L16.8097 2.36617L16.8065 2.37103H16.8876L17.3421 2.27378C17.6451 2.20895 17.9345 2.13061 18.2104 2.03876L18.6487 1.89288L18.6974 1.87667L18.7217 1.86857L18.7379 1.86047L18.7542 1.85236L18.7704 1.84426L18.7866 1.83615L18.8191 1.83129L18.8516 1.82805V1.86047L18.8434 1.86371L18.8353 1.86857L18.8321 1.87343L18.8272 1.87667L18.8223 1.87992L18.8191 1.88478L18.8159 1.88964L18.811 1.89288L18.8061 1.89612L18.8029 1.90099L18.7996 1.90585L18.7948 1.90909L18.7866 1.9253L18.7785 1.94151L18.7737 1.94475C18.7715 1.94799 18.7028 2.03983 18.5675 2.22029C18.4323 2.40183 18.3592 2.49366 18.3484 2.49584C18.3376 2.49908 18.3224 2.51529 18.303 2.54446C18.2846 2.57471 18.1699 2.6952 17.9589 2.90591C17.7479 3.11662 17.5412 3.30408 17.3389 3.46834C17.1354 3.63367 17.0326 3.83681 17.0305 4.07778C17.0272 4.31766 17.0148 4.58889 16.9931 4.89144C16.9715 5.194 16.9309 5.52086 16.8714 5.87205C16.8119 6.22324 16.7199 6.62034 16.5955 7.06337C16.4711 7.50639 16.3196 7.93862 16.141 8.36004C15.9625 8.78146 15.7758 9.15965 15.581 9.49463C15.3863 9.82961 15.2077 10.1133 15.0454 10.3456C14.8831 10.5779 14.7181 10.7967 14.5504 11.002C14.3827 11.2073 14.1706 11.4386 13.9142 11.6957C13.6566 11.9518 13.516 12.0923 13.4922 12.1171C13.4673 12.1409 13.3612 12.2295 13.174 12.383C12.9879 12.5375 12.7877 12.692 12.5735 12.8465C12.3603 13 12.1645 13.128 11.9859 13.2307C11.8074 13.3333 11.5921 13.4505 11.3399 13.5824C11.0889 13.7153 10.8173 13.8385 10.5251 13.9519C10.233 14.0654 9.9246 14.1708 9.59998 14.268C9.27537 14.3653 8.96158 14.4409 8.6586 14.4949C8.35563 14.5489 8.01207 14.5949 7.62794 14.6327L7.05174 14.6894V14.6975H5.99674V14.6894L5.85878 14.6813C5.76681 14.6759 5.69106 14.6705 5.63154 14.6651C5.57204 14.6597 5.3475 14.63 4.95796 14.576C4.56842 14.5219 4.26275 14.4679 4.04092 14.4139C3.81911 14.3599 3.48907 14.2572 3.05084 14.1059C2.61261 13.9546 2.23768 13.8017 1.92604 13.6472C1.6155 13.4938 1.42073 13.3965 1.34173 13.3555C1.26383 13.3155 1.17618 13.2658 1.07879 13.2064L0.932717 13.1172L0.929487 13.1123L0.924601 13.1091L0.919732 13.1059L0.916486 13.101L0.900255 13.0929L0.884024 13.0848L0.880794 13.0799L0.875909 13.0767L0.87104 13.0734L0.867793 13.0686L0.864563 13.0637L0.859678 13.0605H0.851562V13.0281L0.867793 13.0313L0.884024 13.0362L0.957063 13.0443C1.00576 13.0497 1.13831 13.0578 1.35472 13.0686C1.57114 13.0794 1.80107 13.0794 2.04453 13.0686C2.28799 13.0578 2.53688 13.0335 2.79115 12.9956C3.04544 12.9578 3.34571 12.893 3.69196 12.8011C4.03823 12.7093 4.35635 12.6002 4.64635 12.4737C4.93526 12.3462 5.14084 12.2511 5.26312 12.1885C5.3843 12.1269 5.56933 12.0123 5.8182 11.8448L6.19151 11.5936L6.19475 11.5888L6.19962 11.5855L6.20451 11.5823L6.20774 11.5774L6.21099 11.5725L6.21585 11.5693L6.22074 11.5661L6.22397 11.5612L6.2402 11.5563L6.25643 11.5531L6.25968 11.5369L6.26455 11.5207L6.26943 11.5174L6.27266 11.5126L6.14282 11.5045C6.05626 11.4991 5.97239 11.4937 5.89124 11.4883C5.81008 11.4829 5.68295 11.4586 5.50981 11.4153C5.3367 11.3721 5.15004 11.3073 4.94985 11.2208C4.74967 11.1344 4.5549 11.0317 4.36554 10.9129C4.17619 10.794 4.0393 10.6951 3.9549 10.6162C3.87159 10.5384 3.76337 10.4282 3.63028 10.2856C3.49828 10.1419 3.38357 9.99438 3.28619 9.84311C3.1888 9.69183 3.09575 9.5173 3.00703 9.31958L2.8723 9.02458L2.86419 9.00027L2.85607 8.97596L2.8512 8.95975L2.84796 8.94354L2.8723 8.94678L2.89665 8.95164L3.07519 8.97596C3.19422 8.99217 3.38088 8.99756 3.63515 8.99217C3.88944 8.98677 4.06527 8.97596 4.16265 8.95975C4.26004 8.94354 4.31956 8.93273 4.34119 8.92733L4.37365 8.91923L4.41423 8.91112L4.45481 8.90302L4.45805 8.89816L4.46292 8.89492L4.46781 8.89167L4.47104 8.88681L4.43858 8.87871L4.40612 8.8706L4.37365 8.8625L4.34119 8.85439L4.30873 8.84629C4.2871 8.84089 4.24923 8.83008 4.19512 8.81387C4.14102 8.79767 3.99494 8.73823 3.75688 8.63558C3.51884 8.53293 3.32948 8.43298 3.1888 8.33573C3.04778 8.23819 2.91332 8.13153 2.78628 8.01642C2.65968 7.89972 2.52064 7.74952 2.36915 7.56583C2.21766 7.38214 2.08241 7.16872 1.96337 6.92559C1.84435 6.68247 1.75508 6.45015 1.69557 6.22863C1.63629 6.00842 1.59718 5.78327 1.57872 5.55598L1.54949 5.21561L1.56572 5.21885L1.58195 5.22371L1.59818 5.23182L1.61441 5.23992L1.63064 5.24802L1.64687 5.25613L1.89845 5.36959C2.06618 5.44523 2.27447 5.51007 2.52334 5.56409C2.77222 5.61811 2.92099 5.64784 2.96969 5.65323L3.04273 5.66134H3.1888L3.18557 5.65648L3.18069 5.65323L3.17582 5.64999L3.17257 5.64513L3.16934 5.64027L3.16446 5.63703L3.15959 5.63378L3.15634 5.62892L3.14011 5.62082L3.12388 5.61271L3.12065 5.60785L3.11576 5.60461L3.1109 5.60137L3.10765 5.5965L3.09142 5.5884L3.07519 5.5803L3.07196 5.57543C3.06871 5.57326 3.02218 5.53869 2.93236 5.4717C2.84362 5.40362 2.75057 5.31556 2.65319 5.2075C2.5558 5.09944 2.45842 4.98598 2.36103 4.86713C2.26347 4.748 2.17657 4.62054 2.10134 4.48623C2.0256 4.35116 1.94552 4.17934 1.86112 3.9708C1.77781 3.76333 1.71451 3.55425 1.67122 3.34354C1.62795 3.13283 1.6036 2.92482 1.59818 2.71951C1.59278 2.5142 1.59818 2.33861 1.61441 2.19274C1.63064 2.04686 1.6631 1.88207 1.7118 1.69838C1.76049 1.51469 1.83083 1.32019 1.9228 1.11488L2.06076 0.80692L2.06888 0.782607L2.07699 0.758295L2.08188 0.755053L2.08511 0.750191L2.08835 0.745328L2.09322 0.742086L2.09811 0.745328L2.10134 0.750191L2.10458 0.755053L2.10945 0.758295L2.11434 0.761536L2.11757 0.766399L2.12081 0.771261L2.12568 0.774503L2.1338 0.790712L2.14191 0.80692L2.1468 0.810162L2.15003 0.815024L2.36915 1.05815C2.51522 1.22023 2.68836 1.40123 2.88853 1.60113C3.08872 1.80103 3.19963 1.90476 3.22126 1.91233C3.24292 1.92097 3.26996 1.94582 3.30242 1.98689C3.33488 2.02688 3.44309 2.12251 3.62704 2.27378C3.811 2.42505 4.05175 2.60066 4.34931 2.80055C4.64688 3.00045 4.97691 3.19766 5.33939 3.39216C5.70189 3.58666 6.09143 3.76225 6.50801 3.91893C6.92461 4.07562 7.21676 4.17827 7.38447 4.22689C7.5522 4.27552 7.83894 4.33765 8.24471 4.41329C8.65048 4.48894 8.95617 4.53756 9.16175 4.55917C9.36735 4.58077 9.50802 4.5932 9.58375 4.59645L9.69737 4.59969L9.69414 4.57538L9.68925 4.55106L9.65679 4.34846C9.63516 4.21339 9.62433 4.02429 9.62433 3.78116C9.62433 3.53804 9.64327 3.31383 9.68114 3.10851C9.71902 2.9032 9.77583 2.6952 9.85156 2.48449C9.92731 2.27378 10.0014 2.10466 10.0739 1.97717C10.1475 1.85074 10.2438 1.70649 10.3628 1.5444C10.4819 1.38232 10.6361 1.21484 10.8254 1.04194C11.0148 0.869047 11.2312 0.715067 11.4746 0.580002C11.7181 0.444938 11.9426 0.342274 12.1482 0.272042C12.3538 0.201811 12.527 0.155877 12.6676 0.134271C12.8083 0.112665 12.8786 0.100233 12.8786 0.0969917Z" fill="#E6E8F1"/>
</svg>
