<svg width="20" height="20" viewBox="0 0 20 20" fill="none" xmlns="http://www.w3.org/2000/svg">
<path d="M14.8622 4.51299L6.90723 4.51299C6.74138 4.51299 6.58232 4.57887 6.46504 4.69615C6.34777 4.81342 6.28188 4.97248 6.28188 5.13833C6.28188 5.30419 6.34777 5.46325 6.46504 5.58052C6.58232 5.6978 6.74138 5.76368 6.90723 5.76368L13.3535 5.76313L4.69752 14.4191C4.58031 14.5363 4.51447 14.6953 4.51447 14.8611C4.51447 15.0268 4.58031 15.1858 4.69752 15.303C4.81473 15.4202 4.97371 15.4861 5.13947 15.4861C5.30523 15.4861 5.4642 15.4202 5.58141 15.303L14.2374 6.64701L14.2368 13.0933C14.2368 13.2591 14.3027 13.4182 14.42 13.5355C14.5373 13.6527 14.6963 13.7186 14.8622 13.7186C15.028 13.7186 15.1871 13.6527 15.3044 13.5355C15.4216 13.4182 15.4875 13.2591 15.4875 13.0933L15.4875 5.13833C15.4876 5.0562 15.4714 4.97486 15.44 4.89897C15.4086 4.82308 15.3626 4.75412 15.3045 4.69604C15.2464 4.63797 15.1774 4.5919 15.1015 4.56049C15.0257 4.52908 14.9443 4.51294 14.8622 4.51299Z" fill="#7A63FF"/>
</svg>
