<svg width="28" height="20" viewBox="0 0 28 20" fill="none" xmlns="http://www.w3.org/2000/svg">
<path d="M15.0505 19.165L9.63424 19.0637C7.88058 19.0285 6.12255 19.0989 4.40327 18.7334C1.78785 18.1874 1.60257 15.5102 1.40869 13.2646C1.14154 10.1074 1.24496 6.89301 1.7491 3.76225C2.03371 2.00556 3.15375 0.957329 4.88586 0.843262C10.733 0.429295 16.619 0.478355 22.4532 0.671485C23.0693 0.68919 23.6897 0.785958 24.2973 0.896105C27.2964 1.43333 27.3695 4.46719 27.5639 7.02113C27.7578 9.60143 27.676 12.195 27.3054 14.7577C27.0081 16.8796 26.4393 18.659 24.0388 18.8307C21.0311 19.0554 18.0924 19.2362 15.0763 19.1786C15.0764 19.165 15.0591 19.165 15.0505 19.165ZM11.8663 13.793C14.1328 12.4631 16.3561 11.1554 18.6097 9.83443C16.3389 8.50455 14.1198 7.19683 11.8663 5.87587V13.793Z" fill="#10172A"/>
</svg>
