<svg width="28" height="20" viewBox="0 0 28 20" fill="none" xmlns="http://www.w3.org/2000/svg">
<path d="M15.0525 19.1655L9.6362 19.0642C7.88253 19.029 6.12451 19.0994 4.40523 18.7339C1.78981 18.1879 1.60452 15.5107 1.41064 13.265C1.14349 10.1079 1.24691 6.8935 1.75106 3.76273C2.03566 2.00605 3.15571 0.957817 4.88781 0.84375C10.7349 0.429784 16.621 0.478843 22.4551 0.671973C23.0713 0.689678 23.6917 0.786446 24.2993 0.896594C27.2983 1.43382 27.3715 4.46768 27.5659 7.02162C27.7598 9.60192 27.6779 12.1955 27.3073 14.7582C27.01 16.8801 26.4412 18.6595 24.0407 18.8312C21.033 19.0558 18.0944 19.2367 15.0782 19.1791C15.0784 19.1655 15.0611 19.1655 15.0525 19.1655ZM11.8682 13.7935C14.1348 12.4636 16.358 11.1559 18.6116 9.83492C16.3409 8.50504 14.1218 7.19732 11.8682 5.87636V13.7935Z" fill="#1F4DA8"/>
</svg>
