<svg width="27" height="19" viewBox="0 0 27 19" fill="none" xmlns="http://www.w3.org/2000/svg">
<path d="M13.7849 18.6376L8.36862 18.5364C6.61496 18.5011 4.85693 18.5715 3.13765 18.2061C0.522229 17.6601 0.336943 14.9829 0.143062 12.7372C-0.124088 9.58009 -0.0206663 6.36567 0.483479 3.2349C0.768086 1.47821 1.88813 0.429985 3.62024 0.315918C9.46737 -0.0980484 15.3534 -0.048989 21.1876 0.144141C21.8037 0.161846 22.4241 0.258614 23.0317 0.368762C26.0308 0.905986 26.1039 3.93985 26.2983 6.49379C26.4922 9.07409 26.4103 11.6676 26.0398 14.2304C25.7425 16.3522 25.1736 18.1316 22.7731 18.3034C19.7655 18.528 16.8268 18.7088 13.8107 18.6513C13.8108 18.6376 13.7935 18.6376 13.7849 18.6376ZM10.6006 13.2657C12.8672 11.9358 15.0905 10.6281 17.344 9.30709C15.0733 7.97721 12.8542 6.66949 10.6006 5.34852V13.2657Z" fill="#E6E8F1"/>
</svg>
